<?xml version="1.0" standalone="no"?>
<!DOCTYPE svg PUBLIC "-//W3C//DTD SVG 20010904//EN"
 "http://www.w3.org/TR/2001/REC-SVG-20010904/DTD/svg10.dtd">
<svg version="1.0" xmlns="http://www.w3.org/2000/svg"
 width="300.000000pt" height="340.000000pt" viewBox="0 0 300.000000 340.000000"
 preserveAspectRatio="xMidYMid meet">
<metadata>
Created by potrace 1.10, written by Peter Selinger 2001-2011
</metadata>
<g transform="translate(0.000000,340.000000) scale(0.100000,-0.100000)"
fill="#000000" stroke="none">
<path d="M233 2308 c5 -987 5 -986 61 -1178 70 -241 210 -429 419 -564 45 -30
248 -137 451 -239 l370 -185 366 187 c415 212 485 255 589 355 120 116 188
218 241 365 77 210 80 256 80 1284 l0 887 -1291 0 -1290 0 4 -912z m563 852
l475 0 -7 -22 c-3 -12 -8 -199 -9 -415 -2 -217 -5 -396 -7 -398 -2 -3 -42 -6
-87 -8 -104 -4 -111 -12 -111 -114 0 -53 -4 -75 -14 -79 -7 -3 -170 -6 -362
-7 -192 -1 -357 -6 -366 -11 -17 -8 -18 21 -18 529 0 486 2 537 16 531 9 -3
229 -6 490 -6z m1961 -504 c0 -277 -2 -516 -4 -530 -4 -20 -10 -25 -22 -21 -9
4 -166 8 -350 10 -272 2 -335 5 -342 16 -5 8 -9 43 -9 79 0 36 -4 70 -8 77
-13 21 -62 33 -132 33 -43 0 -72 5 -76 12 -4 7 -7 185 -6 397 1 327 -1 389
-13 408 l-15 23 482 2 c266 2 486 2 489 1 3 -1 6 -229 6 -507z m-987 67 l0
-438 118 3 118 3 -4 -105 -4 -106 378 0 379 0 0 -250 0 -250 -405 0 -405 0
-25 -47 c-14 -26 -53 -78 -87 -114 l-63 -66 0 -515 0 -514 -119 -59 -120 -59
-118 62 -118 61 -3 520 -2 520 -45 47 c-25 25 -60 73 -78 105 l-32 59 -422 0
-423 0 0 250 0 250 396 0 395 0 -2 103 -2 102 107 0 106 0 -2 438 -3 437 243
0 242 0 0 -437z m984 -1268 c-24 -420 -192 -707 -520 -892 -82 -46 -381 -199
-418 -212 -24 -10 -24 -9 -15 22 5 18 9 101 9 185 l0 152 26 10 c21 8 38 4 99
-26 40 -20 75 -43 77 -52 3 -9 17 -23 31 -31 65 -35 110 46 90 163 -6 33 -8
66 -6 73 3 7 21 17 41 24 49 15 90 54 114 106 l19 42 46 -24 c25 -14 60 -25
77 -25 39 0 93 32 108 65 6 14 14 25 19 25 7 0 4 58 -6 100 -6 25 -52 80 -66
80 -4 0 -19 4 -33 10 l-26 10 20 37 c11 21 20 43 20 49 0 22 -38 45 -71 43
-43 -3 -146 48 -193 96 -65 65 -107 37 -117 -76 -2 -19 0 -39 3 -44 3 -6 9
-31 12 -57 l7 -47 -40 -11 c-110 -29 -173 -163 -131 -275 6 -15 10 -30 10 -35
0 -9 -121 -72 -127 -66 -3 3 -6 310 -4 422 1 43 6 56 34 85 47 49 107 130 107
145 0 21 42 23 413 22 253 0 362 3 370 11 20 20 27 -11 21 -104z m-2051 94
c209 -1 391 -5 404 -10 12 -4 30 -23 39 -41 9 -18 20 -35 23 -38 3 -3 23 -27
45 -53 l39 -49 2 -491 c1 -271 6 -500 10 -509 7 -17 5 -17 -31 -2 -66 27 -385
191 -468 240 -90 53 -231 183 -286 264 -110 163 -170 352 -186 594 -6 100 -6
109 10 103 9 -4 189 -7 399 -8z m1472 -83 c-15 -47 -17 -67 -11 -101 4 -21 13
-35 22 -35 8 0 17 -6 20 -14 3 -8 12 -12 20 -9 8 3 25 -2 37 -10 21 -14 27
-14 55 0 18 9 41 31 53 49 23 38 23 38 50 24 28 -15 24 -32 -21 -83 -38 -43
-104 -77 -151 -77 -15 0 -15 -4 4 -41 25 -51 33 -126 18 -172 -17 -51 -78
-102 -140 -118 -40 -10 -50 -16 -45 -28 36 -84 41 -122 24 -181 -17 -60 -24
-66 -54 -46 -20 13 -24 21 -18 33 8 13 -7 24 -82 60 -104 51 -103 50 -90 62 5
5 46 -12 96 -39 78 -43 88 -46 93 -30 12 39 -6 69 -53 90 -26 12 -49 25 -52
31 -7 10 -40 2 -40 -11 0 -4 32 -21 70 -38 63 -28 90 -52 58 -52 -16 0 -149
75 -146 81 2 3 -9 -7 -23 -22 -15 -14 -29 -33 -31 -40 -7 -18 -42 1 -46 25 -9
42 78 114 156 131 33 7 38 14 23 31 -16 17 -33 83 -33 128 0 82 53 144 148
172 l54 15 -17 32 c-24 47 -29 156 -9 195 15 29 18 31 42 20 19 -9 24 -17 19
-32z m98 -67 c96 -48 91 -45 83 -58 -8 -12 -186 74 -186 89 0 17 18 11 103
-31z m-24 -45 c76 -43 76 -42 69 -49 -9 -9 -148 59 -148 72 0 19 6 17 79 -23z
m254 -174 c40 -44 38 -99 -6 -146 -28 -31 -39 -36 -75 -36 -82 1 -137 73 -112
147 28 85 130 104 193 35z"/>
<path d="M805 3061 c-29 -12 -73 -59 -91 -98 -18 -37 -23 -38 -124 -21 -67 12
-70 11 -95 -12 -32 -30 -32 -68 -1 -123 13 -23 33 -59 45 -80 26 -46 26 -52 2
-85 -37 -53 -71 -121 -71 -145 0 -13 12 -34 26 -48 24 -22 32 -24 115 -21 l89
3 12 -28 c22 -51 49 -83 87 -103 35 -17 40 -17 67 -4 42 22 58 39 84 90 23 44
25 45 69 43 82 -4 99 0 130 32 45 44 37 111 -21 191 -10 15 -8 22 15 46 15 15
27 39 27 54 0 14 5 38 10 55 8 22 7 38 -4 65 -20 48 -78 72 -150 63 l-52 -7
-24 48 c-37 70 -96 105 -145 85z m84 -47 c17 -14 38 -47 48 -75 15 -42 21 -49
38 -44 11 3 45 8 75 12 47 4 59 2 83 -17 24 -19 28 -28 22 -54 -3 -17 -6 -48
-5 -68 0 -29 -5 -41 -24 -53 -14 -9 -29 -14 -34 -11 -6 3 -15 -1 -22 -9 -10
-12 -5 -21 24 -52 20 -21 43 -57 52 -80 15 -40 15 -44 0 -68 -26 -40 -61 -49
-130 -36 -32 7 -59 11 -60 9 -1 -2 -10 -24 -19 -49 -10 -25 -30 -58 -47 -74
-55 -53 -111 -27 -151 71 -22 53 -23 54 -58 49 -146 -18 -159 -17 -177 10 -16
25 -16 27 3 53 11 15 24 38 28 51 4 13 23 40 42 61 l34 39 -35 45 c-19 25 -38
56 -42 68 -4 12 -16 35 -26 49 -36 48 5 102 60 81 15 -6 47 -13 72 -16 25 -3
53 -8 61 -11 12 -4 19 5 28 34 15 52 70 111 104 111 14 0 39 -12 56 -26z"/>
<path d="M801 2995 c-24 -21 -68 -102 -59 -110 2 -1 24 -12 51 -23 l47 -21 45
20 c39 17 45 24 39 42 -13 44 -47 95 -70 106 -19 8 -28 6 -53 -14z m61 -34
c25 -29 32 -62 17 -72 -20 -12 -69 -11 -69 2 0 5 -4 8 -9 5 -19 -12 -20 26 -1
46 11 12 20 25 20 30 0 15 25 8 42 -11z"/>
<path d="M527 2893 c-4 -3 -7 -15 -7 -25 0 -13 7 -18 25 -18 20 0 25 5 25 25
0 18 -5 25 -18 25 -10 0 -22 -3 -25 -7z"/>
<path d="M600 2869 c0 -9 -12 -26 -27 -37 l-26 -19 21 -34 c12 -19 31 -44 42
-57 l19 -23 34 27 c30 23 35 35 40 83 3 30 5 57 3 59 -2 1 -27 6 -55 11 -45 7
-51 6 -51 -10z m65 -33 c16 -12 17 -17 6 -44 -16 -38 -39 -48 -57 -25 -19 25
-17 53 4 69 22 17 24 17 47 0z"/>
<path d="M983 2873 c-20 -4 -21 -9 -16 -61 5 -48 10 -61 37 -82 43 -35 52 -32
48 17 -3 34 0 44 17 53 12 6 29 10 39 8 21 -4 29 36 12 58 -12 13 -83 17 -137
7z m69 -58 c-26 -29 -28 -29 -44 -13 -32 32 -17 47 44 45 l26 -1 -26 -31z"/>
<path d="M727 2818 c-3 -24 -5 -44 -3 -45 1 -1 21 10 44 26 l42 27 -35 17
c-20 9 -37 17 -39 17 -2 0 -6 -19 -9 -42z"/>
<path d="M898 2841 l-36 -16 44 -27 c47 -29 50 -27 35 33 -6 26 -6 26 -43 10z"/>
<path d="M773 2775 l-53 -35 0 -58 0 -59 56 -38 c63 -41 67 -41 139 12 40 29
40 30 37 89 l-4 60 -53 32 c-29 18 -57 32 -62 31 -4 0 -32 -15 -60 -34z m114
-37 c64 -60 -8 -164 -86 -124 -50 26 -58 92 -15 125 34 27 72 27 101 -1z"/>
<path d="M1074 2765 c-8 -19 3 -35 26 -35 19 0 30 17 23 38 -6 17 -42 15 -49
-3z"/>
<path d="M669 2701 c-24 -20 -24 -20 -4 -35 28 -22 30 -20 31 19 0 19 0 35 -2
35 -1 0 -12 -9 -25 -19z"/>
<path d="M978 2679 l4 -41 21 21 c20 20 20 21 2 41 -26 29 -31 25 -27 -21z"/>
<path d="M585 2613 c-41 -56 -41 -60 -15 -68 13 -4 23 -18 27 -36 6 -31 13
-33 75 -23 l38 7 -6 56 c-5 46 -11 61 -37 84 -17 15 -35 27 -39 27 -4 0 -23
-21 -43 -47z m85 -63 c0 -36 -24 -45 -50 -18 -25 27 -25 46 -3 71 17 18 18 18
35 -3 10 -12 18 -35 18 -50z"/>
<path d="M1004 2632 c-26 -23 -32 -36 -37 -84 l-5 -57 54 -7 c29 -3 65 -3 79
0 32 8 41 45 21 84 -18 34 -65 92 -74 92 -4 -1 -21 -13 -38 -28z m77 -58 c18
-19 21 -29 13 -41 -14 -22 -45 -32 -71 -22 -25 9 -29 32 -14 73 12 30 38 26
72 -10z"/>
<path d="M726 2548 c4 -23 7 -44 8 -45 1 -1 19 6 41 16 l39 17 -40 24 c-21 14
-42 26 -47 28 -4 2 -5 -16 -1 -40z"/>
<path d="M903 2560 l-43 -27 39 -15 39 -16 6 41 c4 22 5 41 4 42 -2 1 -22 -10
-45 -25z"/>
<path d="M524 2515 c-8 -21 2 -45 19 -45 8 0 20 7 27 15 10 12 10 18 0 30 -7
8 -19 15 -27 15 -7 0 -16 -7 -19 -15z"/>
<path d="M788 2501 c-21 -10 -41 -20 -44 -23 -11 -11 48 -119 71 -130 31 -14
60 3 84 50 37 74 37 79 -15 101 -54 24 -48 24 -96 2z m90 -41 c10 -17 10 -24
-3 -44 -17 -26 -41 -39 -55 -31 -5 3 -15 18 -23 34 -13 26 -13 31 1 45 23 22
65 20 80 -4z"/>
<path d="M2076 2842 c-142 -54 -181 -73 -190 -91 -8 -19 -6 -26 14 -41 13 -10
41 -24 62 -31 54 -17 60 -29 55 -98 -7 -89 4 -99 178 -165 74 -27 105 -32 120
-17 6 4 44 21 85 36 90 34 130 60 130 85 0 10 5 22 10 25 8 5 8 11 0 20 -6 8
-10 31 -8 52 2 30 7 38 23 38 12 0 19 -6 17 -14 -5 -23 -13 -93 -14 -125 -1
-33 24 -56 54 -51 45 9 53 60 26 163 -10 39 -9 46 11 72 40 55 35 61 -129 125
-123 48 -231 85 -250 84 -8 0 -96 -30 -194 -67z m389 -27 c94 -36 177 -65 184
-65 38 0 -12 -23 -181 -83 l-191 -69 -193 69 c-106 37 -190 70 -188 73 10 10
359 139 378 140 10 0 96 -29 191 -65z m153 -165 c-1 -20 1 -41 5 -47 4 -7 3
-14 -2 -18 -7 -4 -7 -15 -1 -31 6 -14 10 -36 10 -49 0 -18 -5 -23 -26 -21 -25
1 -26 3 -20 41 9 53 12 85 14 143 2 35 5 43 12 32 6 -8 9 -31 8 -50z m-548 2
c0 -4 9 -8 20 -9 11 -1 57 -15 103 -32 l82 -30 109 40 c60 22 110 38 111 37 1
-2 5 -26 9 -55 6 -48 5 -54 -17 -68 -24 -15 -193 -76 -212 -76 -5 0 -47 13
-92 29 -78 28 -81 30 -65 47 16 18 16 18 -1 6 -29 -22 -30 -5 -1 18 15 11 21
21 15 21 -7 0 -9 5 -5 12 4 7 3 8 -5 4 -6 -4 -9 -11 -6 -15 8 -14 -42 -54 -57
-46 -10 6 -10 5 -1 -5 6 -6 59 -29 117 -50 l107 -38 57 24 c31 13 64 24 72 24
8 0 34 11 57 24 24 14 45 21 48 16 8 -14 -33 -37 -115 -65 -40 -14 -85 -32
-98 -41 -23 -15 -27 -15 -61 4 -20 11 -67 30 -105 42 -89 29 -108 48 -95 92 5
18 9 48 9 65 0 18 5 33 10 33 6 0 10 -4 10 -8z"/>
<path d="M2235 2760 c-10 -16 14 -40 39 -40 31 0 50 16 43 34 -7 18 -72 23
-82 6z m70 -10 c4 -6 -7 -10 -24 -10 -17 0 -31 5 -31 10 0 6 11 10 24 10 14 0
28 -4 31 -10z"/>
<path d="M1110 2006 c0 -194 3 -262 16 -310 42 -162 168 -316 325 -396 100
-51 100 -51 223 31 140 92 227 201 271 341 24 75 25 90 25 328 l0 250 -430 2
-430 3 0 -249z m813 216 c16 -2 18 -19 16 -239 -1 -259 -6 -290 -65 -404 -55
-106 -261 -279 -332 -279 -64 0 -219 111 -293 210 -89 118 -107 199 -108 482
l-2 227 23 3 c22 3 725 3 761 0z"/>
<path d="M1442 2109 c-201 -78 -256 -346 -102 -499 148 -149 379 -104 468 89
71 155 9 328 -143 400 -78 37 -144 40 -223 10z m191 -25 c25 -9 64 -33 86 -54
116 -113 120 -278 9 -396 -166 -176 -448 -56 -448 192 0 191 175 319 353 258z"/>
<path d="M1428 2038 c-45 -26 -46 -31 -13 -46 17 -8 25 -8 25 -1 0 6 9 24 21
40 24 34 17 36 -33 7z"/>
<path d="M1504 2038 c-12 -12 -26 -33 -32 -44 -10 -19 -8 -22 20 -28 17 -3 33
-4 35 -2 2 2 3 25 1 51 l-3 47 -21 -24z"/>
<path d="M1559 2009 c3 -49 4 -50 30 -44 14 4 28 8 30 11 5 5 -47 84 -57 84
-4 0 -5 -23 -3 -51z"/>
<path d="M1632 2021 c20 -35 25 -38 45 -28 27 12 18 29 -28 53 -40 20 -42 18
-17 -25z"/>
<path d="M1336 1937 c-15 -28 -26 -61 -26 -74 0 -21 4 -23 50 -23 48 0 50 1
50 29 0 16 2 41 6 57 4 25 0 32 -25 46 l-30 16 -25 -51z m40 -55 c-4 -3 -11
-1 -18 6 -8 8 -8 15 3 28 13 16 14 16 17 -5 2 -13 1 -25 -2 -29z"/>
<path d="M1682 1968 c-15 -8 -21 -17 -16 -27 3 -9 9 -35 11 -58 l6 -43 49 0
50 0 -7 33 c-10 46 -43 107 -58 106 -6 0 -22 -5 -35 -11z"/>
<path d="M1444 1911 c-3 -20 -8 -44 -11 -53 -4 -15 3 -18 46 -18 l51 0 0 44
c0 42 -1 44 -40 54 l-40 10 -6 -37z"/>
<path d="M1573 1933 c-8 -3 -13 -23 -13 -49 l0 -44 49 0 48 0 -8 43 c-4 23 -8
45 -9 50 0 8 -48 8 -67 0z"/>
<path d="M1310 1787 c0 -13 12 -46 26 -75 l26 -52 30 17 c25 15 29 23 24 47
-3 16 -6 41 -6 57 0 28 -2 29 -50 29 -46 0 -50 -2 -50 -23z"/>
<path d="M1434 1793 c2 -10 7 -33 11 -50 7 -34 18 -39 63 -27 18 5 22 13 22
50 l0 44 -51 0 c-43 0 -50 -2 -45 -17z"/>
<path d="M1560 1765 c0 -42 2 -46 30 -51 16 -4 33 -7 37 -7 5 0 13 23 19 52
l12 51 -49 0 -49 0 0 -45z"/>
<path d="M1677 1768 c-2 -24 -8 -50 -11 -58 -8 -20 49 -54 62 -37 18 22 39 72
45 105 l7 32 -49 0 -48 0 -6 -42z"/>
<path d="M1483 1683 c-21 -4 -22 -6 -9 -31 8 -15 23 -36 35 -46 l21 -19 0 51
c0 54 0 54 -47 45z"/>
<path d="M1560 1641 c0 -28 2 -51 5 -51 7 0 58 80 54 84 -2 3 -16 7 -32 11
-27 7 -27 7 -27 -44z"/>
<path d="M1413 1657 c-13 -6 -23 -13 -23 -17 0 -7 80 -54 84 -49 1 2 -7 20
-18 40 -19 32 -24 35 -43 26z"/>
<path d="M1630 1633 c-25 -43 -21 -49 17 -29 48 24 57 41 29 54 -22 10 -27 8
-46 -25z"/>
<path d="M1040 1487 c-14 -6 -43 -19 -66 -29 -22 -10 -49 -20 -60 -23 -10 -2
-55 -15 -99 -28 -44 -13 -105 -28 -135 -31 -168 -21 -199 -40 -208 -124 -3
-36 1 -59 17 -89 49 -96 119 -108 252 -43 89 43 109 48 109 25 0 -17 30 -35
59 -35 26 0 26 -2 -4 -54 -13 -23 -31 -74 -39 -113 -9 -39 -23 -86 -32 -106
-12 -25 -14 -39 -7 -52 9 -15 13 -10 27 33 10 29 22 54 27 57 5 4 9 28 9 55 0
48 25 120 42 120 4 0 8 6 8 14 0 39 189 176 243 176 39 0 27 -54 -25 -110 -13
-14 -40 -51 -61 -84 -21 -32 -47 -61 -58 -63 -10 -3 -17 -9 -14 -13 7 -11 -36
-47 -76 -64 -25 -11 -41 -27 -53 -53 -9 -21 -24 -50 -32 -65 -8 -16 -11 -28
-5 -28 15 0 40 28 62 71 11 23 37 50 62 65 48 30 107 93 134 142 10 17 21 32
25 32 5 0 8 6 8 13 0 8 11 24 24 36 61 57 66 121 11 135 -14 4 -23 11 -20 16
3 5 6 38 7 73 1 52 -3 70 -21 96 -18 25 -70 63 -83 60 -2 0 -14 -5 -28 -12z
m84 -58 c27 -32 34 -76 16 -110 -9 -15 -7 -19 5 -19 37 0 1 -18 -47 -23 -45
-6 -144 -33 -157 -43 -2 -2 6 -15 18 -31 22 -27 22 -27 2 -34 -10 -4 -23 -15
-28 -24 -7 -12 -17 -14 -37 -9 -15 3 -25 12 -23 18 17 46 18 56 3 56 -9 0 -66
-25 -126 -55 -116 -58 -144 -64 -190 -40 -54 28 -84 120 -56 173 17 34 46 45
144 56 95 12 285 65 352 99 72 36 83 35 124 -14z m-24 -191 c0 -4 -7 -8 -15
-8 -8 0 -15 -4 -15 -8 0 -4 -14 -16 -31 -26 -33 -19 -57 -11 -46 17 8 21 107
44 107 25z"/>
<path d="M1005 1419 c-33 -16 -68 -29 -77 -29 -9 0 -20 -4 -23 -10 -3 -5 -1
-10 5 -10 16 0 42 -68 34 -92 -5 -17 -3 -19 18 -12 12 4 50 15 83 23 66 18 90
46 79 91 -5 24 -41 71 -53 69 -3 0 -33 -14 -66 -30z m85 -28 c5 -11 7 -27 4
-36 -9 -21 -56 -45 -92 -45 -24 0 -31 5 -36 26 -4 15 -6 28 -4 29 14 12 87 44
100 45 10 0 22 -9 28 -19z"/>
<path d="M892 1335 c14 -25 19 -45 14 -65 -3 -17 -1 -30 4 -30 19 0 15 75 -6
108 -24 37 -35 25 -12 -13z"/>
<path d="M767 1345 c-27 -7 -71 -16 -98 -20 l-48 -7 27 -34 c15 -19 33 -34 40
-34 6 0 12 -4 12 -10 0 -5 -4 -10 -9 -10 -4 0 -11 -15 -14 -32 -3 -18 -8 -41
-12 -50 -5 -13 15 -6 76 26 46 24 95 47 109 51 31 9 40 22 40 56 0 32 -35 79
-58 78 -9 0 -39 -7 -65 -14z m77 -31 c32 -31 15 -55 -66 -92 -59 -27 -58 -27
-58 1 0 12 -7 31 -15 41 -22 29 -19 34 33 49 63 20 88 20 106 1z"/>
<path d="M544 1302 c-25 -17 -35 -52 -25 -90 21 -76 73 -111 112 -76 25 22 24
38 0 24 -52 -28 -95 9 -89 77 3 33 7 39 36 49 18 5 29 13 26 17 -9 9 -46 9
-60 -1z"/>
<path d="M600 1271 c0 -15 28 -33 40 -26 8 5 8 11 -1 21 -13 15 -39 19 -39 5z"/>
<path d="M560 1226 c0 -35 21 -63 40 -51 16 10 12 35 -5 29 -8 -4 -15 -2 -15
4 0 6 5 12 11 14 14 5 0 38 -17 38 -9 0 -14 -12 -14 -34z"/>
<path d="M630 1205 c0 -18 4 -23 15 -19 8 4 15 15 15 25 0 10 -7 19 -15 19 -9
0 -15 -9 -15 -25z"/>
<path d="M1130 1209 c-39 -16 -90 -59 -90 -76 0 -9 -6 -13 -14 -10 -21 8 -76
-58 -76 -89 0 -19 -4 -25 -14 -21 -10 4 -18 -5 -25 -25 -21 -60 -11 -61 27 -2
47 72 139 173 181 197 44 26 38 5 -8 -27 -51 -35 -191 -212 -191 -241 0 -8 78
33 85 45 3 5 -1 10 -9 10 -9 0 -16 5 -16 10 0 6 10 10 23 10 28 0 37 7 70 51
31 41 33 49 12 49 -27 0 -16 18 16 25 28 6 89 72 89 97 0 11 -29 9 -60 -3z"/>
<path d="M2120 1438 c-15 -55 -2 -106 61 -232 53 -108 62 -162 34 -215 -15
-31 -86 -71 -123 -71 -21 0 -31 -23 -14 -34 12 -7 110 29 133 50 33 30 51 73
52 124 1 36 -11 71 -57 165 -58 121 -69 170 -53 228 6 21 4 27 -7 27 -9 0 -20
-17 -26 -42z"/>
<path d="M2373 1326 c-15 -23 -37 -39 -70 -51 -91 -32 -87 -30 -71 -42 23 -20
117 19 156 63 18 21 31 42 29 48 -7 21 -23 14 -44 -18z"/>
<path d="M2192 1285 c9 -20 16 -23 37 -18 34 8 39 13 14 13 -11 0 -26 7 -33
15 -20 24 -31 18 -18 -10z"/>
<path d="M2050 1203 c-43 -22 -60 -38 -78 -73 -33 -63 -25 -107 42 -247 57
-120 66 -164 47 -216 -7 -19 -6 -27 4 -31 20 -7 38 56 33 114 -3 31 -23 83
-56 148 -64 124 -71 164 -44 219 22 41 61 67 122 79 17 4 29 12 27 18 -7 21
-42 17 -97 -11z"/>
<path d="M2115 1181 c-72 -17 -70 -24 21 -69 62 -31 85 -38 80 -27 -3 9 -6 21
-6 26 0 5 -3 8 -8 7 -11 -4 -102 35 -102 44 0 14 34 8 68 -12 36 -22 39 -20
16 15 -17 26 -21 27 -69 16z"/>
<path d="M2022 1128 c-9 -9 10 -22 76 -56 93 -48 109 -58 100 -68 -4 -3 -50
17 -102 44 -77 40 -96 46 -96 33 0 -11 29 -31 86 -59 61 -30 84 -46 76 -54 -7
-7 -33 2 -86 30 -42 21 -76 34 -76 28 0 -12 20 -45 20 -34 0 4 23 -6 51 -22
49 -29 51 -30 84 -14 20 9 40 30 50 51 9 19 15 36 13 37 -1 1 -44 23 -94 49
-68 35 -93 44 -102 35z"/>
<path d="M2030 950 c7 -12 21 -20 38 -20 l27 0 -33 20 c-41 25 -45 25 -32 0z"/>
<path d="M1893 865 c-55 -28 -100 -82 -82 -100 6 -6 18 1 35 23 28 36 91 72
124 72 27 0 21 24 -6 28 -10 1 -42 -9 -71 -23z"/>
<path d="M1980 851 c-25 -7 -24 -7 9 -19 39 -14 46 -12 28 10 -8 10 -20 13
-37 9z"/>
<path d="M2375 1188 c-78 -45 -48 -168 41 -168 82 0 122 103 61 156 -30 26
-70 30 -102 12z m49 -44 c22 -21 20 -47 -4 -69 -30 -27 -70 -7 -70 34 0 45 44
66 74 35z"/>
</g>
</svg>
