<?xml version="1.0" encoding="UTF-8"?>
<svg id="_图层_1" data-name="图层_1" xmlns="http://www.w3.org/2000/svg" version="1.1" viewBox="0 0 1000 1000">
  <!-- Generator: Adobe Illustrator 29.5.1, SVG Export Plug-In . SVG Version: 2.1.0 Build 141)  -->
  <defs>
    <style>
      .st0 {
        fill: #752d33;
      }
    </style>
  </defs>
  <path class="st0" d="M968.65,424.59c4.31,26.85,6.57,53.93,6.17,81.05-1.4,96.66-27.98,185.63-83.75,265.08-53.58,76.32-123.11,133.34-209.13,169.81-37.19,15.77-75.99,25.73-116.03,31.15-27.75,3.77-55.58,5.17-83.46,3.95-98.73-4.39-188.4-34.9-267.79-94.31-70.07-52.43-121.16-119.6-154.39-200.38-15.13-36.78-25.2-74.94-30.73-114.42-4.33-30.84-5.24-61.77-3.73-92.67,2.29-46.83,11.8-92.38,27.86-136.56,18.62-51.23,44.57-98.35,79.29-140.37C199.9,115.94,284.63,62.87,386.51,37.22c8.58-2.15,17.31-3.7,26.44-5.59,12.43-1.8,24.38-3.84,36.39-5.24,20.72-2.38,41.56-2.77,62.39-2.22,73.17,1.88,142.43,19.19,207.57,52.74,49.36,25.43,92.83,58.55,130.17,99.59,37.56,41.24,67.18,87.64,88.7,139.17,14.66,35.06,24.47,71.42,30.48,108.93ZM955.74,508.95c.47-20.28-.98-40.51-3.04-60.7-2.71-26.53-7.9-52.56-15.42-78.07-14.31-48.56-36.3-93.47-65.56-134.8-38.16-53.93-85.62-97.78-142.79-130.94-65.8-38.16-136.98-58.04-212.88-60.9-26.8-1.02-53.56.25-80.2,3.97-42.64,5.94-83.53,17.9-122.64,35.61-73.73,33.39-134.83,82.51-182.06,148.45-51.92,72.44-81.29,153.17-86.17,242.21-2.09,37.96-.15,75.94,7.23,113.5,16.17,82.29,51.92,154.88,107.83,217.31,41.62,46.46,90.74,83.15,147.36,109.62,49.88,23.3,102.35,36.83,157.15,41.15,21.3,1.67,42.66,1.69,64.07.4,23.16-1.4,46.04-4.39,69.66-9.14.69-.22,1.37-.47,2.08-.62,48.39-10.23,93.21-29.33,135.2-55.09,43.77-26.84,82.09-60.06,114.95-99.62,27.05-32.55,49.56-67.87,66.91-106.47,25.16-55.93,36.92-114.79,38.32-175.87h0Z"/>
  <path class="st0" d="M296.39,513.81c.42-22.61.78-44.71,1.29-66.82.07-3.53-.6-5.97-4.06-7.97-6.7-3.86-9.27-10.49-9.54-17.9-.16-4.41-1.91-5.88-6.32-5.79-7.52.15-8.52-1.09-8.54-8.41-.02-8.88-.2-17.77.07-26.65.15-4.62-1.17-6.77-6.1-6.28-3.4.35-6.88.07-10.32.05-1.46,0-2.91-.11-4.08-1.18-3.44-3.17-1.22-16.82,3.04-18.64,23.81-10.21,47.63-20.39,71.42-30.62,35.79-15.37,71.57-30.75,107.34-46.17,22.3-9.59,44.59-19.21,66.82-28.97,2.59-1.15,4.44-.4,6.63.55,32.59,14.11,65.18,28.18,97.78,42.26,46.24,19.95,92.49,39.91,138.73,59.86.16.07.33.16.49.24,11.63,5.13,11.52,5.13,10.96,17.71-.16,3.42-1.42,5.02-4.86,4.95-3.62-.07-7.26.13-10.87-.07-3.77-.2-5.12,1.29-5.04,5.06.18,9.79-.11,19.59.13,29.37.13,5.26-2.2,7.48-7.15,6.99-5.68-.58-8.41.76-8.5,7.45-.11,6.83-3.19,13.04-9.79,16.51-2.44,1.29-3.06,3.11-3.06,5.75.07,27,.96,53.98,1.97,80.94.64,17.02.27,34.05,1.27,51.07.84,14.27.87,28.6,1.22,42.91.05,2.02.02,4.01,2,5.3,7.92,5.21,9.69,13.27,9.45,21.87-.13,4.06,1.31,4.86,4.93,4.92,12.67.18,12.78.31,12.63,12.94-.15,12.87.24,25.73-.31,38.6-.24,5.68-2.38,6.85-7.57,6.85-68.71-.15-137.44-.09-206.15-.09h-249.11c-5.57,0-8.36-2.83-8.37-8.5,0-14.51.13-29-.07-43.51-.05-4.7,1.62-6.43,6.34-6.41,10.6.04,10.5-.15,11.2-10.36.4-5.77,2.18-11.2,7.06-14.71,3.08-2.22,3.75-4.81,3.82-8.3.69-31.33,1.49-62.67,2.33-94,.09-3.44.55-6.86.86-10.8M618.97,319.9c-36.12-15.49-72.37-30.73-108.27-46.72-7.52-3.35-13.42-3.24-20.79,0-57.93,25.29-116.03,50.16-174.05,75.25-3.02,1.31-6.41,2.09-9.36,4.81h385.89c.11-.46.24-.91.35-1.37-24.34-10.52-48.7-21.06-73.79-31.95M633.8,600.67c0-8.7,1.22-17.33,1.07-26.05-.18-10.5.13-21.03.42-31.53.86-32.22,1.78-64.47,2.79-96.69.11-3.33-1.15-5.28-4.01-6.95-4.5-2.64-7.45-6.59-9.14-11.71-1.29-3.88.84-9.27-3.15-11.56-3.68-2.11-8.52-.47-12.85-.73-.55-.04-1.09.05-1.64,0-4.99-.58-6.77,1.64-6.65,6.57.18,6.99-2.57,13.05-8.72,16.44-4.92,2.71-5.48,6.37-5.32,11.23,1.17,34.03,2.28,68.07,3.17,102.1.58,22.47.84,44.93,1.11,67.4.04,2.82.8,4.77,3.26,6.3,6.95,4.3,9.78,10.83,9.83,18.83.05,7.74.09,7.74,7.74,7.74.73,0,1.46-.07,2.17,0,4.99.62,7.17-1.07,6.95-6.57-.24-6.04.73-13.05,5.88-16.26,7.61-4.75,7.19-11.21,7.01-18.26-.07-3.08.02-6.17.05-10.32M371.71,626.76c5.44,4.02,6.81,10,7.72,16.17,1.38,9.34,1.38,9.12,11,9.19,4.64.04,6.37-1.37,6.3-6.23-.13-8.32,2.22-15.84,9.9-20.48,2.84-1.73,2.91-4.22,2.97-7.03.4-25.73.69-51.45,1.33-77.18.78-31.33,2-62.67,2.08-94.02,0-2.66.55-5.48-2.44-7.25-7.54-4.48-11.07-11.2-10.8-19.92.11-3.24-1.49-4.61-4.62-4.57-3.99.05-7.97.11-11.96-.04-4.15-.16-5.72,1.46-5.59,5.77.24,8.01-2.97,14.49-10.23,18.41-3,1.62-3.9,3.88-3.84,7.08.18,8.87.38,17.75.6,26.62,1.11,44.02,1.86,88.04,2.75,132.07.09,4.7.47,9.41.55,14.11.04,2.97.98,5.3,4.3,7.26M328.89,396.2h286.62c30.09,0,60.19-.07,90.28.09,4.59.02,6.77-1.13,6.35-6.08-.35-3.95-.16-7.97-.05-11.96.07-3.02-1.26-4.33-4.24-4.19-1.8.09-3.62-.02-5.44-.02h-404.63c-1.82,0-3.62.09-5.44.05-2.75-.05-3.93,1.26-3.88,3.99.07,4.17.24,8.36-.04,12.51-.27,4.31,1.46,5.73,5.68,5.66,11.23-.2,22.48-.05,34.81-.05M511.82,425.64c-1.4-6.81-5.66-10.21-12.8-10.2-.73,0-1.46.07-2.17,0-4.97-.47-7.3,1.38-7.21,6.75.13,6.75-2.79,12.51-8.54,16.08-4.04,2.51-4.73,5.61-4.68,9.96.42,31.33,1.33,62.65,2.26,93.96.71,24.25.89,48.52,1.33,72.79.04,1.8.13,3.62.35,5.43.24,1.97.46,4.02,2.28,5.32,7.23,5.17,9.27,12.71,9.18,20.97-.04,3.97,1.22,5.77,5.28,5.37,1.62-.16,3.26-.13,4.88,0,4.75.36,6.81-1.46,6.83-6.54.04-7.83,1.93-15.15,9.19-19.77,2.09-1.33,2.48-3.31,2.53-5.63.69-30.95,1.42-61.9,2.18-92.85.67-26.78,1.38-53.58,2.18-80.36.11-3.59-.71-6.15-4.1-8.01-4.82-2.66-7.77-6.94-9.03-13.24M436.6,691.14c89.56,0,179.13.02,268.68-.04,12.85,0,11.07,1.75,11.2-11.29.07-8.7,0-8.72-8.92-8.72h-411.2c-8.2,0-12.31,4.14-12.31,12.43,0,5.07,2.62,7.61,7.87,7.61h144.68M655.12,467.88c-.09,9.41-.66,18.83-.93,28.24-1.09,40.38-1.75,80.78-2.69,121.16-.11,4.3,1.51,5.88,5.66,5.81,8.34-.13,16.68,0,25.02-.05,7.46-.04,8.3-1.04,8.03-8.58-1.06-30.04-2.46-60.08-2.95-90.12-.4-23.54-1.91-47.08-1.37-70.64.04-1.8-.25-3.6-.36-5.41-.25-4.06-2.51-5.66-6.44-5.59-5.61.11-11.25.25-16.86-.05-5.08-.29-6.9,2.28-6.99,6.75-.11,5.79-.07,11.6-.11,18.48M346.6,504.82c-.36-18.64-.82-37.3-1.04-55.95-.05-4.41-1.78-6.26-6.15-6.17-6.15.13-12.33.16-18.48-.04-4.06-.13-5.3,1.58-5.35,5.5-.24,17.2-.67,34.39-1.13,51.6-.47,18.1-1.06,36.19-1.53,54.31-.56,21.17-1.04,42.35-1.67,63.52-.13,4.08,1.69,5.5,5.5,5.46,9.07-.07,18.11-.13,27.18,0,4.17.05,6.01-1.69,5.79-5.84-.38-6.86-.86-13.75-.93-20.61-.35-30.24-.95-60.46-2.18-91.76M458.77,466.71c-.07-5.63-.35-11.25-.18-16.86.16-5.21-2.26-7.25-7.19-7.14-4.53.09-9.07.16-13.6-.02-4.84-.2-6.81,1.84-6.86,6.74-.25,21.56-.73,43.11-1.13,64.67-.09,4.35-.24,8.7-.35,13.04-.69,30.24-1.35,60.48-2.08,90.72-.09,3.73,1.4,5.24,5.12,5.19,7.25-.13,14.49,0,21.76-.04,8.17-.04,8.79-.44,8.58-8.59-.53-19.74-1.4-39.45-1.93-59.19-.8-29.15-1.42-58.3-2.13-88.52M569.88,622.94c3.81-.31,3.93-3.08,3.99-5.92.13-7.25-.58-14.46-.84-21.68-1.04-30.59-1.67-61.19-2.4-91.78-.44-18.1-.86-36.19-1.07-54.31-.05-4.39-1.93-6.41-6.1-6.46-5.26-.07-10.5,0-15.77-.04-3.1-.02-4.7,1.4-4.84,4.53-.25,5.06-.87,10.12-.82,15.17.29,27-1.18,53.96-1.58,80.94-.36,24.98-1.13,49.94-1.82,74.92-.11,3.88,1.6,5.02,5.26,4.92,8.32-.24,16.66-.18,25.98-.29M648.86,652.05c15.71,0,31.44-.04,47.15.04,3.48,0,5.43-.87,5.23-4.9-.18-3.68-.73-6.46-5.26-6.44-17.17.05-34.32.05-51.49.04-4.52,0-5.72,2.4-5.83,6.57-.11,4.64,2.51,4.92,5.9,4.73,1.07-.05,2.17,0,4.31,0M357.73,652c4.61.15,4.06-3.13,3.9-6.01-.22-3.86-2.66-5.23-6.23-5.23-16.46.02-32.93.04-49.39,0-4.42,0-6.57,1.84-6.74,6.48-.18,5.13,3.1,4.81,6.46,4.81,17-.02,34.03,0,52-.07M554.12,640.76c-7.41.04-14.84-.04-22.25.15-4.22.11-5.28,2.95-5.28,6.7,0,2.84.8,4.44,3.97,4.42,17.37-.05,34.74-.05,52.11,0,2.97,0,4.19-1.33,4.26-4.26.13-4.75-1.75-6.9-6.77-6.95-8.32-.09-16.64-.04-26.05-.04M420.87,640.78c-4.64-.2-6.34,2.02-6.3,6.63.04,5.19,3.4,4.64,6.66,4.64,16.11,0,32.21,0,48.32-.07,1.84,0,4.41.56,5.01-2.08.56-2.42.89-5.08-1.11-7.19-1.78-1.91-4.17-1.93-6.55-1.93h-46.04M349.46,415.45c-14.11,0-28.24-.02-42.35.05-2.59,0-5.77-.6-5.63,3.81.13,3.68,1.95,5.68,5.46,6.24,1.06.16,2.17.07,3.26.07h41.8c1.27,0,2.55.09,3.79-.11,3.4-.56,4.82-2.71,4.77-6.12-.05-3.64-2.44-3.93-5.17-3.9-1.62.02-3.26,0-5.94-.02M661.84,415.45c-5.26,0-10.5-.05-15.77.07-1.86.04-4.28-.53-4.92,2.2-.53,2.26.22,4.22,1.88,5.94,1.86,1.91,4.15,1.95,6.54,1.95h37.52c1.98,0,4.01.13,5.97-.07,3.62-.36,5.5-2.44,5.44-6.15-.05-3.93-2.75-3.97-5.66-3.95-9.96.05-19.94.02-30.99.02M434.43,415.46c-3.97,0-7.96-.07-11.92.02-4.53.11-6.28,3.35-3.97,7.21,1.35,2.24,3.48,2.93,6.01,2.91,7.41-.05,14.82,0,22.23,0,6.68,0,13.38.09,20.06-.05,3.91-.09,5.77-2.35,5.77-6.32,0-4.26-2.97-3.77-5.66-3.77-10.49-.02-20.96,0-32.52,0M550.86,425.62c8.87,0,17.73.02,26.58-.02,4.37-.02,6.1-2.73,6.12-6.68,0-4.31-3.4-3.44-5.95-3.46-14.11-.05-28.22-.05-42.33,0-3,0-6.54-.69-6.35,4.26.16,4.44,2.69,5.94,6.74,5.9,4.7-.05,9.41,0,15.2,0h0Z"/>
  <path class="st0" d="M343.96,163.22c-2.46-8.41-4.86-16.39-7.08-24.4-1.26-4.52-3.95-7.19-8.67-6.08-6.08,1.4-6.5-2.35-7.14-7.12,9.65-3.24,19.21-6.5,28.8-9.65,2.17-.71,3.75,1.02,5.39,2.04,18.06,11.11,36.08,22.27,54.14,33.39,1.49.93,2.84,2.28,5.43,2.4-4.15-13.56-8.08-26.84-13-39.8-1.49-3.93-4.77-5.01-8.43-3.99-3.86,1.07-4.73-1.04-5.52-3.93-.84-3.15.89-4.11,3.5-4.84,7.66-2.15,15.29-4.42,22.92-6.74,2.33-.71,4.13-1.06,5.1,1.95.76,2.38,1.66,4.53-1.42,5.92-4.92,2.18-5.01,5.95-3.62,10.45,6.7,21.79,13.33,43.6,19.9,65.43.62,2.06,2.84,4.7.09,6.35-2.84,1.71-6.19,3.51-9.7,1.51-4.41-2.51-8.68-5.24-12.98-7.94-19.55-12.16-39.09-24.32-58.62-36.48-.62-.38-1.29-.64-2.57-1.24.16,1.75.09,3.24.47,4.59,3.97,13.73,7.9,27.45,12.11,41.11,2.35,7.61,4.02,8.56,12.03,7.76,2.77-.27,3.26,1.37,4.06,3.31,1,2.42.25,3.84-2.02,4.64-9.36,3.3-18.73,6.55-28.22,9.87-2.44-3.91-3.51-6.88,1.26-9.61,3.82-2.2,3.22-6.08,2.17-9.74-2.75-9.56-5.48-19.13-8.36-29.11l-.02-.05Z"/>
  <path class="st0" d="M811.89,230.8c5.26,5.77,10.32,11.16,14.16,17.64,16.22,27.4,3.1,52.72-22.59,62.45-16.4,6.19-31.86,3.93-45.3-7.43-14.15-11.96-23.8-28.09-37.61-40.6,3.59-4.02,5.97-8.3,11.18-2.97,3,3.08,6.03.69,8.58-1.53,9.27-8.12,18.5-16.28,27.73-24.43,4.61-4.08,9.14-8.25,13.76-12.33,3.06-2.69,4.48-5.83,2.18-9.58-1.77-2.88-.09-4.17,1.86-5.77,2.31-1.91,3.93-.98,5.53.86,6.75,7.81,13.51,15.62,20.52,23.7M813.99,268.98c3.9-13.05.44-24.43-9.69-32.61-2.09-1.69-3.79-2.49-6.12-.46-15.37,13.51-30.79,26.96-46.17,40.45-1.42,1.24-2.24,2.53-1.31,4.72,4.62,10.89,17.11,18.88,28.82,17.22,17.08-2.42,27.45-13.4,34.46-29.35v.02Z"/>
  <path class="st0" d="M716.88,205.24c-2-.22-2.88.58-2.88,2.11.05,10.32-.71,20.65.42,30.93.4,3.66,1.82,7.01,4.22,9.83,1.46,1.73,2.2,3.3.13,5.1-1.88,1.6-3.55,2.97-6.17,1.09-4.99-3.6-10.12-7.01-15.26-10.43-2.28-1.51-2.79-3.64-2.66-6.12.58-10.65,1.13-21.32,1.78-31.97.13-1.98.62-3.97-.24-5.88-.91-2.02-2.04-4.15-4.3-4.61-2.55-.51-3.06,2.13-4.08,3.68-2.8,4.22-5.44,8.58-8.14,12.87-4.17,6.63-4.04,7.36,1.97,12.65.53.47.95,1.06,1.37,1.51-2.75,6.55-3.24,6.77-8.87,3.3-8.78-5.44-17.48-11-26.23-16.46-2.4-1.49-3.97-2.91-2.09-6.06,1.78-3,3.64-2.88,6.21-1.24,4.53,2.89,7.05-.09,9.23-3.48,8.03-12.51,16-25.05,24-37.56,2.44-3.82,4.86-7.65,7.37-11.42,2.11-3.17,2.24-6.14-.93-8.61-2.69-2.09-3-4.15-.86-6.86,2.46-3.11,4.42-.95,6.48.38,9.87,6.43,19.88,12.62,30.06,18.57,6.12,3.59,11.63,7.96,15.04,14.55,8.48,16.44-1.75,33.86-20.25,34.34-1.62.04-3.26-.09-5.3-.2M696.74,186.78c1.69,2.31,4.3,3.28,6.72,4.42,8.32,3.95,16.99.24,21.83-9.27,4.08-8.01,1.57-15.66-6.46-20.28-2.91-1.69-5.01-1.38-6.92,1.38-5.19,7.61-10.83,14.93-15.18,23.74h.02Z"/>
  <path class="st0" d="M823.27,746.03c2.35,2.29,4.52,4.24,6.43,6.41,1.31,1.47,4.28,2.57,2.68,5.21-1.46,2.42-3.31,4.95-6.68,4.92-5.08-.05-10.14-.15-15.2-.38-20.96-.95-41.87-2.82-62.88-2.95-1.26,0-2.57-.15-3.59,1.15-.8,2.08.89,3.22,2.09,4.44,9.1,9.34,18.24,18.64,27.38,27.95,3.68,3.73,7.56,5.59,12.4,1.82,2.28-1.77,4.33-1.07,6.14,1.06,2.11,2.48.38,3.88-1.29,5.39-6.34,5.7-12.67,11.38-18.97,17.11-1.58,1.44-3.04,2.62-5.08.6-1.84-1.82-3.19-3.66-.96-6.01,3.99-4.21,2.24-7.74-1.11-11.25-12.13-12.73-24.21-25.49-36.27-38.27-3.55-3.77-7.15-6.26-12.03-2.04-1.95,1.69-3.57.84-5.08-.93-1.53-1.8-1.88-3.48-.07-5.24,5.3-5.21,10.2-10.94,16.02-15.46,4.88-3.81,11.18-1.46,16.86-1.18,17.33.84,34.66,1.82,52,2.73,1.06.05,2.2.16,3.1-.76.76-1.24-.22-2.02-.95-2.73-8.65-8.25-17.22-16.59-26.51-24.14-3.11-2.53-6.1-3.97-9.45-.42-2.35,2.48-4.04.95-5.83-.93-1.95-2.02-1.71-3.62.22-5.5,5.86-5.66,11.62-11.43,17.42-17.17,1.71-1.69,3.39-1.93,5.12,0,1.42,1.6,3.62,3.24,1.11,5.41-5.17,4.44-1.66,7.66,1.46,10.72,8.78,8.63,17.73,17.1,26.58,25.69,4.93,4.79,9.79,9.67,14.97,14.78v-.02Z"/>
  <path class="st0" d="M562.76,175.11c-15.93-26.29-6.19-66.67,32.28-73.21,27.96-4.75,56.4,12.13,58.86,44.68,1.97,26.11-20.63,50.03-46.83,50.25-18.3.15-32.95-6.94-44.31-21.72M585.16,180.61c13.64,10.54,29.08,7.74,37.85-7.08,6.39-10.78,10.07-22.34,9.72-35.1-.36-12.98-6.86-22.78-18.02-26.29-9.79-3.08-20.72,1.49-28.07,11.71-5.55,7.7-8.45,16.49-9.65,25.69-1.42,11-.8,21.81,8.17,31.06v.02Z"/>
  <path class="st0" d="M226.63,690.85c9.63,11.34,20.12,21.41,28.8,33.04,2.97,3.97,5.21,8.39,5.73,13.31,1.82,16.84-11.96,28.02-28.18,23.05-1.69-.53-3.3-1.57-5.97-.86-2.73,10.6-6.55,21.28-7.08,32.77-.11,2.28.84,4.26,1.91,6.15,1.33,2.37,1.51,4.15-1.04,6.01-2.71,1.97-4.33,1.15-6.44-.93-9.95-9.78-12.85-21.42-8.68-34.92,1.66-5.35,3.22-10.74,5.06-16.04,1.46-4.19.15-7.34-3.4-10.81-6.01,5.61-12.02,11.01-17.77,16.68-2.35,2.31-1.4,5.17.36,7.45,2.06,2.66,2.84,4.81-.33,7.28-3.6,2.8-4.92-.58-6.5-2.31-6.86-7.46-13.49-15.15-20.28-22.7-1.86-2.08-3.11-3.91-.75-6.54,2.29-2.57,4.21-2.08,6.35.07,3,3.02,5.9,2.64,8.98-.16,13.36-12.22,26.87-24.3,40.2-36.58,2.71-2.49,5.02-5.55,1.95-9.45-2.09-2.66-.38-4.17,1.49-5.84,2.35-2.11,3.88-.89,5.61,1.33M228.16,746.43c8.37-.38,13.62-5.21,16.95-12.34,2.44-5.23-2.22-14.75-7.66-16.57-1.37-.46-2.49-.29-3.51.6-6.41,5.72-12.78,11.47-19.33,17.35,3.97,4.75,7.37,8.92,13.55,10.96h.02Z"/>
  <path class="st0" d="M323.14,224.72c-11.12,20.17-27.78,29.8-50.5,28.64-17.35-.89-35.68-17.31-40.34-36.18-7.41-30.04,16.09-59.39,47.23-60.59,23.58-.91,43.68,15.18,47.54,36.05,2.02,10.94,1.11,21.56-3.93,32.08M269.19,232.15c1.97,1.27,3.86,2.71,5.92,3.82,9.78,5.24,19.68,5.84,28.44-1.58,8.27-7.03,10.72-16.49,7.9-27.02-1.37-5.1-4.04-9.72-6.86-14.13-6.46-10.09-14.15-18.99-26.13-22.63-8.28-2.51-16.22-1.46-22.79,4.68-6.83,6.39-9.61,14.4-7.9,23.58,2.53,13.65,10.6,23.96,21.45,33.28h-.02Z"/>
  <path class="st0" d="M693.79,866.97c-19.83,3.95-36.12-1.24-47.94-17.33-11.21-15.27-13.29-32.15-4.21-49.01,9.36-17.4,25.34-25.8,44.59-26.38,16.75-.49,30.5,6.72,39.67,21.34,14.95,23.85,4.13,55.91-23.01,68.09-2.8,1.26-5.75,2.13-9.1,3.28M714.47,836.59c3.57-15.27-10.72-41.15-26.49-48.48-16.22-7.54-34.26,3.42-33.52,23.83.58,15.98,8.74,29.38,21.9,38.89,15.31,11.05,32.44,4.81,38.11-14.24Z"/>
  <path class="st0" d="M298.16,820.46c2.49-4.59,1.13-7.21-2.91-9.61-11.03-6.57-10.94-6.74-17.77,3.91-2.44,3.81-4.77,7.7-7.3,11.45-1.51,2.24-1.33,3.82.86,5.52,5.59,4.35,11.4,8.34,17.71,11.58,5.12,2.62,9.5.24,13.82-2.09,2.37-1.27,4.53-2.64,6.66.11,1.98,2.55-.51,3.99-1.73,5.53-2.68,3.42-5.64,6.61-8.37,10-1.91,2.37-3.71,2.8-6.46,1.04-16.95-10.81-33.97-21.48-51.01-32.17-2.06-1.29-3.46-2.49-2.04-5.21,1.33-2.53,2.89-3.5,5.63-2.13,3.51,1.75,5.88,0,7.72-2.86,10.16-15.86,20.3-31.73,30.48-47.57,2.17-3.37,2.31-6.35-1.04-9.05-2.42-1.95-2.49-4.01-.56-6.54,2.26-2.95,4.22-1.57,6.46-.13,16.04,10.21,32.08,20.41,48.19,30.53,3.26,2.06,4.77,4.02,2.11,7.74-2.09,2.93-3.64,6.24-5.46,9.38-1.17,2-2.44,3.57-5.21,2.4-2.26-.96-2.79-2.35-2.33-4.7,1.2-6.08-1.62-10.36-6.34-13.93-14.29-10.74-14.27-10.81-24.01,4.01-1.97,2.99-4.39,5.75-5.5,9.79,4.39,2.8,8.98,5.24,13.8,7.25,2.62,1.09,4.59-.27,6.43-1.78,1.98-1.64,3.66-2.8,6.04-.44,2.44,2.4.89,4.15-.42,6.14-3.26,5.01-6.44,10.07-9.7,15.09-1.07,1.67-2.08,3.57-4.68,2.4-2.29-1.02-4.31-2.17-3.08-5.64l.02-.02Z"/>
  <path class="st0" d="M472.79,144.3c3.15,12.91,9.72,22.25,22.63,25.94,13,3.71,24.81-1.51,30.79-13.69,1.17-2.38,2.2-3.81,5.26-3.13,3.17.67,2.77,2.8,2.82,4.93.44,14.11-.64,16.28-14.24,19.81-18.33,4.77-36.34,3.93-52.71-6.79-11.6-7.59-17.04-18.9-17.48-32.59-.15-4.86-.47-9.74.51-14.62,4.61-22.65,21.72-33.3,42.49-36.89,13.02-2.26,25.51.13,37.72,4.7,2.71,1.02,4.06,2.4,3.84,5.57-.33,4.7-.04,9.41-.15,14.13-.04,1.89.4,4.39-2.62,4.41-2.28,0-5.04.29-5.7-2.84-1.22-5.73-3.68-10.54-9.05-13.49-5.44-2.99-11.25-3.86-17.33-3.26-12.34,1.22-23.32,11.18-26.13,23.59-1.77,7.88-1.27,15.82-.69,24.21h.02Z"/>
  <path class="st0" d="M245.74,263.59c11.31,10.1,12,12.4,5.95,26.45-9.05,20.97-24.6,34.05-47.75,35.76-15.38,1.15-31.95-7.59-41.13-24.65-12.31-22.88-3.48-52.63,19.9-67.87,13.02-8.48,13.38-8.47,25.47,1.49,1.24,1.04,2.42,2.15,3.82,3.39-1.49,3.08-2.49,5.94-7.06,4.55-18.17-5.48-37.19,12.58-32.21,31.04,4.77,17.62,16.59,28.84,34.72,33.86,7.41,1.11,14.15.67,20.5-2.73,13.22-7.05,18.15-22.61,10.92-35.74-1.75-3.19-.93-5.01,1.38-6.97,2.51-2.15,3.95.05,5.48,1.42h0Z"/>
  <path class="st0" d="M541.63,852.39c4.22,1.75,8.23,3.04,11.85,5.02,10.6,5.79,14.64,15.09,13.49,26.82-1.02,10.25-7.08,16.75-16.13,20.75-12.18,5.39-24.58,4.86-37.09,1.18-3.59-1.06-5.5-3.2-5.88-6.85-.42-4.13-.86-8.27-1.27-12.38-.33-3.26,2.24-3.13,4.28-3.68,2.64-.69,4.15-.31,5.17,2.84,3.26,10.03,13.29,15,22.81,11.92,5.01-1.62,7.97-4.95,8.81-10.01.86-5.1-1.18-9.19-5.24-12.33-4.1-3.17-9.08-4.46-13.76-6.35-4.72-1.91-9.36-3.82-13.47-6.92-8.43-6.35-11.12-14.98-9.7-24.98,1.24-8.7,6.83-14.15,14.82-17.22,11.42-4.39,23.07-3.53,34.74-1.37,2.2.42,3.1,1.91,3.55,4.15,1.13,5.39.71,10.76.71,15.95-5.59,2.55-8.47,1.44-10.09-4.59-1.8-6.7-9.39-9.43-17.66-7.37-5.52,1.38-8.61,5.72-8.1,11.21.44,4.73,3.62,7.41,7.36,9.43,3.33,1.8,6.94,3.08,10.83,4.73l-.02.02Z"/>
  <path class="st0" d="M381.8,880.94c-2.15,2.73-4.15,5.08-5.95,7.57-1.47,2.04-3.1,2.49-5.61,1.95-7.76-1.69-7.99-2.22-8.59-10.45-1.75-24.14-3.59-48.28-6.26-72.33-.47-4.22-2.44-6.59-6.1-8.07-1.88-.75-3.2-1.89-2.09-4.13.96-1.93,1.77-4.22,4.72-3.35,11.4,3.4,22.96,6.32,34.21,10.54-.69,3.99-1.15,7.3-6.19,6.79-2.93-.31-4.52,1.93-4.21,4.52,1.95,16.51,1.8,33.19,4.33,49.65.05.33.35.6.82,1.4,5.9-5.99,10.78-12.63,15.78-19.15,4.97-6.46,9.87-12.98,14.71-19.54,2.49-3.37,3.19-6.7-1.42-8.94-2.88-1.4-2.06-3.4-1.24-5.46.98-2.51,2.71-2.17,4.9-1.53,6.95,2.02,13.96,3.82,20.96,5.66,1.77.46,4.01.6,3.5,3.11-.49,2.4-1.17,5.55-4.44,5.26-4.93-.44-7.68,2.37-10.4,5.68-13.75,16.86-27.51,33.7-41.49,50.85l.07-.04Z"/>
  <path class="st0" d="M453.09,861.09c.64-8.27,1.07-16.02,1.95-23.74.76-6.74.02-8.58-6.5-10.85-3.1-1.07-3.13-3-2.64-5.52.53-2.77,2.15-3.11,4.77-2.86,10.25,1,20.52,1.67,30.77,2.55,2.35.2,4.92.35,4.86,3.77-.05,2.62-.78,4.33-3.91,4.77-4.5.62-6.61,3.33-6.95,8.19-1.24,17.66-2.84,35.3-4.39,52.94-.36,4.11.75,7.32,4.88,8.58,4.44,1.35,4.86,4.11,3.37,8.14-7.87,1.22-15.71-.8-23.59-1.2-3.77-.18-7.56-.58-11.36-.73-2.44-.09-4.19-.78-4.24-3.73-.04-2.69.46-4.5,3.73-4.68,4.21-.25,6.63-2.82,6.99-6.97.86-9.36,1.53-18.73,2.28-28.62v-.04Z"/>
  <path class="st0" d="M574.45,818.22c-1.06-3,.4-4.04,2.59-4.66,10.1-2.86,20.19-5.72,30.29-8.59,1.82-.51,3.51-1.02,4.46,1.44.84,2.17,1.58,4.42-1,5.66-5.83,2.82-5.33,7.01-3.81,12.31,4.68,16.15,8.99,32.39,13.29,48.65,1.44,5.43,3.57,9.61,10.29,8.45,2.64-.46,2.82,1.67,3.4,3.3.78,2.17-.15,3.44-2.26,4.08-10.58,3.17-21.14,6.39-31.71,9.54-2.17.66-3.91.38-4.48-2.35-.42-2.09-1.78-4.44,1.26-5.5,6.24-2.17,6.32-6.79,4.9-11.92-4.48-16.22-9.01-32.42-13.65-48.59-1.46-5.04-3.33-9.89-10.34-8.39-2.18.47-2.62-1.4-3.24-3.4h.02Z"/>
</svg>