<?xml version="1.0" encoding="UTF-8"?>
<svg id="Layer_1" xmlns="http://www.w3.org/2000/svg" version="1.1" viewBox="0 0 612 1024">
  <!-- Generator: Adobe Illustrator 29.5.1, SVG Export Plug-In . SVG Version: 2.1.0 Build 141)  -->
  <defs>
    <style>
      .st0 {
        fill: #752d33;
      }
    </style>
  </defs>
  <path class="st0" d="M563.87,469.99c2.37,14.75,3.61,29.62,3.39,44.52-.77,53.09-15.37,101.96-46,145.6-29.43,41.92-67.62,73.24-114.87,93.27-20.43,8.66-41.74,14.13-63.73,17.11-15.24,2.07-30.53,2.84-45.84,2.17-54.23-2.41-103.48-19.17-147.09-51.8-38.49-28.8-66.55-65.69-84.8-110.06-8.31-20.2-13.84-41.16-16.88-62.85-2.38-16.94-2.88-33.93-2.05-50.9,1.26-25.72,6.48-50.74,15.3-75.01,10.23-28.14,24.48-54.02,43.55-77.1,36.77-44.48,83.31-73.63,139.27-87.72,4.71-1.18,9.51-2.03,14.52-3.07,6.83-.99,13.39-2.11,19.99-2.88,11.38-1.31,22.83-1.52,34.27-1.22,40.19,1.03,78.23,10.54,114.01,28.97,27.11,13.97,50.99,32.16,71.5,54.7,20.63,22.65,36.9,48.14,48.72,76.44,8.05,19.26,13.44,39.23,16.74,59.83ZM556.78,516.33c.26-11.14-.54-22.25-1.67-33.34-1.49-14.57-4.34-28.87-8.47-42.88-7.86-26.67-19.94-51.34-36.01-74.04-20.96-29.62-47.03-53.71-78.43-71.92-36.14-20.96-75.24-31.88-116.93-33.45-14.72-.56-29.42.14-44.05,2.18-23.42,3.26-45.88,9.83-67.36,19.56-40.5,18.34-74.06,45.32-100,81.54-28.52,39.79-44.65,84.13-47.33,133.04-1.15,20.85-.08,41.71,3.97,62.34,8.88,45.2,28.52,85.07,59.23,119.36,22.86,25.52,49.84,45.67,80.94,60.21,27.4,12.8,56.22,20.23,86.32,22.6,11.7.92,23.43.93,35.19.22,12.72-.77,25.29-2.41,38.26-5.02.38-.12.75-.26,1.14-.34,26.58-5.62,51.2-16.11,74.26-30.26,24.04-14.74,45.09-32.99,63.14-54.72,14.86-17.88,27.22-37.28,36.75-58.48,13.82-30.72,20.28-63.05,21.05-96.6Z"/>
  <path class="st0" d="M194.62,519c.23-12.42.43-24.56.71-36.7.04-1.94-.33-3.28-2.23-4.38-3.68-2.12-5.09-5.76-5.24-9.83-.09-2.42-1.05-3.23-3.47-3.18-4.13.08-4.68-.6-4.69-4.62-.01-4.88-.11-9.76.04-14.64.08-2.54-.64-3.72-3.35-3.45-1.87.19-3.78.04-5.67.03-.8,0-1.6-.06-2.24-.65-1.89-1.74-.67-9.24,1.67-10.24,13.08-5.61,26.16-11.2,39.23-16.82,19.66-8.44,39.31-16.89,58.96-25.36,12.25-5.27,24.49-10.55,36.7-15.91,1.42-.63,2.44-.22,3.64.3,17.9,7.75,35.8,15.48,53.71,23.21,25.4,10.96,50.8,21.92,76.2,32.88.09.04.18.09.27.13,6.39,2.82,6.33,2.82,6.02,9.73-.09,1.88-.78,2.76-2.67,2.72-1.99-.04-3.99.07-5.97-.04-2.07-.11-2.81.71-2.77,2.78.1,5.38-.06,10.76.07,16.13.07,2.89-1.21,4.11-3.93,3.84-3.12-.32-4.62.42-4.67,4.09-.06,3.75-1.75,7.16-5.38,9.07-1.34.71-1.68,1.71-1.68,3.16.04,14.83.53,29.65,1.08,44.46.35,9.35.15,18.7.7,28.05.46,7.84.48,15.71.67,23.57.03,1.11.01,2.2,1.1,2.91,4.35,2.86,5.32,7.29,5.19,12.01-.07,2.23.72,2.67,2.71,2.7,6.96.1,7.02.17,6.94,7.11-.08,7.07.13,14.13-.17,21.2-.13,3.12-1.31,3.76-4.16,3.76-37.74-.08-75.49-.05-113.23-.05-45.61,0-91.22,0-136.83,0q-4.59,0-4.6-4.67c0-7.97.07-15.93-.04-23.9-.03-2.58.89-3.53,3.48-3.52,5.82.02,5.77-.08,6.15-5.69.22-3.17,1.2-6.15,3.88-8.08,1.69-1.22,2.06-2.64,2.1-4.56.38-17.21.82-34.42,1.28-51.63.05-1.89.3-3.77.47-5.93M371.8,412.49c-19.84-8.51-39.75-16.88-59.47-25.66-4.13-1.84-7.37-1.78-11.42,0-31.82,13.89-63.73,27.55-95.6,41.33-1.66.72-3.52,1.15-5.14,2.64h211.96c.06-.25.13-.5.19-.75-13.37-5.78-26.75-11.57-40.53-17.55M379.95,566.71c0-4.78.67-9.52.59-14.31-.1-5.77.07-11.55.23-17.32.47-17.7.98-35.41,1.53-53.11.06-1.83-.63-2.9-2.2-3.82-2.47-1.45-4.09-3.62-5.02-6.43-.71-2.13.46-5.09-1.73-6.35-2.02-1.16-4.68-.26-7.06-.4-.3-.02-.6.03-.9,0-2.74-.32-3.72.9-3.65,3.61.1,3.84-1.41,7.17-4.79,9.03-2.7,1.49-3.01,3.5-2.92,6.17.64,18.69,1.25,37.39,1.74,56.08.32,12.34.46,24.68.61,37.02.02,1.55.44,2.62,1.79,3.46,3.82,2.36,5.37,5.95,5.4,10.34.03,4.25.05,4.25,4.25,4.25.4,0,.8-.04,1.19,0,2.74.34,3.94-.59,3.82-3.61-.13-3.32.4-7.17,3.23-8.93,4.18-2.61,3.95-6.16,3.85-10.03-.04-1.69.01-3.39.03-5.67M235.99,581.04c2.99,2.21,3.74,5.49,4.24,8.88.76,5.13.76,5.01,6.04,5.05,2.55.02,3.5-.75,3.46-3.42-.07-4.57,1.22-8.7,5.44-11.25,1.56-.95,1.6-2.32,1.63-3.86.22-14.13.38-28.26.73-42.39.43-17.21,1.1-34.42,1.14-51.64,0-1.46.3-3.01-1.34-3.98-4.14-2.46-6.08-6.15-5.93-10.94.06-1.78-.82-2.53-2.54-2.51-2.19.03-4.38.06-6.57-.02-2.28-.09-3.14.8-3.07,3.17.13,4.4-1.63,7.96-5.62,10.11-1.65.89-2.14,2.13-2.11,3.89.1,4.87.21,9.75.33,14.62.61,24.18,1.02,48.36,1.51,72.54.05,2.58.26,5.17.3,7.75.02,1.63.54,2.91,2.36,3.99M212.47,454.4c52.48,0,104.95,0,157.43,0,16.53,0,33.06-.04,49.59.05,2.52.01,3.72-.62,3.49-3.34-.19-2.17-.09-4.38-.03-6.57.04-1.66-.69-2.38-2.33-2.3-.99.05-1.99-.01-2.99-.01-74.08,0-148.17,0-222.25,0-1,0-1.99.05-2.99.03-1.51-.03-2.16.69-2.13,2.19.04,2.29.13,4.59-.02,6.87-.15,2.37.8,3.15,3.12,3.11,6.17-.11,12.35-.03,19.12-.03M312.95,470.57q-1.15-5.61-7.03-5.6c-.4,0-.8.04-1.19,0-2.73-.26-4.01.76-3.96,3.71.07,3.71-1.53,6.87-4.69,8.83-2.22,1.38-2.6,3.08-2.57,5.47.23,17.21.73,34.41,1.24,51.61.39,13.32.49,26.65.73,39.98.02.99.07,1.99.19,2.98.13,1.08.25,2.21,1.25,2.92,3.97,2.84,5.09,6.98,5.04,11.52-.02,2.18.67,3.17,2.9,2.95.89-.09,1.79-.07,2.68,0,2.61.2,3.74-.8,3.75-3.59.02-4.3,1.06-8.32,5.05-10.86,1.15-.73,1.36-1.82,1.39-3.09.38-17,.78-34,1.2-51,.37-14.71.76-29.43,1.2-44.14.06-1.97-.39-3.38-2.25-4.4-2.65-1.46-4.27-3.81-4.96-7.27M271.63,616.4c49.19,0,98.39.01,147.58-.02,7.06,0,6.08.96,6.15-6.2.04-4.78,0-4.79-4.9-4.79-75.29,0-150.57,0-225.86,0q-6.76,0-6.76,6.83,0,4.18,4.32,4.18c26.29,0,52.58,0,79.47,0M391.66,493.77c-.05,5.17-.36,10.34-.51,15.51-.6,22.18-.96,44.37-1.48,66.55-.06,2.36.83,3.23,3.11,3.19,4.58-.07,9.16,0,13.74-.03,4.1-.02,4.56-.57,4.41-4.71-.58-16.5-1.35-33-1.62-49.5-.22-12.93-1.05-25.86-.75-38.8.02-.99-.14-1.98-.2-2.97-.14-2.23-1.38-3.11-3.54-3.07-3.08.06-6.18.14-9.26-.03-2.79-.16-3.79,1.25-3.84,3.71-.06,3.18-.04,6.37-.06,10.15M222.2,514.06c-.2-10.24-.45-20.49-.57-30.73-.03-2.42-.98-3.44-3.38-3.39-3.38.07-6.77.09-10.15-.02-2.23-.07-2.91.87-2.94,3.02-.13,9.45-.37,18.89-.62,28.34-.26,9.94-.58,19.88-.84,29.83-.31,11.63-.57,23.26-.92,34.89-.07,2.24.93,3.02,3.02,3,4.98-.04,9.95-.07,14.93,0,2.29.03,3.3-.93,3.18-3.21-.21-3.77-.47-7.55-.51-11.32-.19-16.61-.52-33.21-1.2-50.4M283.81,493.13c-.04-3.09-.19-6.18-.1-9.26.09-2.86-1.24-3.98-3.95-3.92-2.49.05-4.98.09-7.47-.01-2.66-.11-3.74,1.01-3.77,3.7-.14,11.84-.4,23.68-.62,35.52-.05,2.39-.13,4.78-.19,7.16-.38,16.61-.74,33.22-1.14,49.83-.05,2.05.77,2.88,2.81,2.85,3.98-.07,7.96,0,11.95-.02,4.49-.02,4.83-.24,4.71-4.72-.29-10.84-.77-21.67-1.06-32.51-.44-16.01-.78-32.02-1.17-48.62M344.84,578.94c2.09-.17,2.16-1.69,2.19-3.25.07-3.98-.32-7.94-.46-11.91-.57-16.8-.92-33.61-1.32-50.41-.24-9.94-.47-19.88-.59-29.83-.03-2.41-1.06-3.52-3.35-3.55-2.89-.04-5.77,0-8.66-.02-1.7-.01-2.58.77-2.66,2.49-.14,2.78-.48,5.56-.45,8.33.16,14.83-.65,29.64-.87,44.46-.2,13.72-.62,27.43-1,41.15-.06,2.13.88,2.76,2.89,2.7,4.57-.13,9.15-.1,14.27-.16M388.22,594.93c8.63,0,17.27-.02,25.9.02,1.91,0,2.98-.48,2.87-2.69-.1-2.02-.4-3.55-2.89-3.54-9.43.03-18.85.03-28.28.02-2.48,0-3.14,1.32-3.2,3.61-.06,2.55,1.38,2.7,3.24,2.6.59-.03,1.19,0,2.37,0M228.31,594.9c2.53.08,2.23-1.72,2.14-3.3-.12-2.12-1.46-2.87-3.42-2.87-9.04.01-18.09.02-27.13,0-2.43,0-3.61,1.01-3.7,3.56-.1,2.82,1.7,2.64,3.55,2.64,9.34-.01,18.69,0,28.56-.04M336.18,588.73c-4.07.02-8.15-.02-12.22.08-2.32.06-2.9,1.62-2.9,3.68,0,1.56.44,2.44,2.18,2.43,9.54-.03,19.08-.03,28.62,0,1.63,0,2.3-.73,2.34-2.34.07-2.61-.96-3.79-3.72-3.82-4.57-.05-9.14-.02-14.31-.02M262.99,588.74c-2.55-.11-3.48,1.11-3.46,3.64.02,2.85,1.87,2.55,3.66,2.55,8.85,0,17.69,0,26.54-.04,1.01,0,2.42.31,2.75-1.14.31-1.33.49-2.79-.61-3.95-.98-1.05-2.29-1.06-3.6-1.06-8.25,0-16.5,0-25.29,0M223.77,464.97c-7.75,0-15.51-.01-23.26.03-1.42,0-3.17-.33-3.09,2.09.07,2.02,1.07,3.12,3,3.43.58.09,1.19.04,1.79.04,7.65,0,15.31,0,22.96,0,.7,0,1.4.05,2.08-.06,1.87-.31,2.65-1.49,2.62-3.36-.03-2-1.34-2.16-2.84-2.14-.89.01-1.79,0-3.26-.01M395.35,464.97c-2.89,0-5.77-.03-8.66.04-1.02.02-2.35-.29-2.7,1.21-.29,1.24.12,2.32,1.03,3.26,1.02,1.05,2.28,1.07,3.59,1.07,6.87,0,13.74,0,20.61,0,1.09,0,2.2.07,3.28-.04,1.99-.2,3.02-1.34,2.99-3.38-.03-2.16-1.51-2.18-3.11-2.17-5.47.03-10.95.01-17.02.01M270.44,464.98c-2.18,0-4.37-.04-6.55.01-2.49.06-3.45,1.84-2.18,3.96.74,1.23,1.91,1.61,3.3,1.6,4.07-.03,8.14,0,12.21,0,3.67,0,7.35.05,11.02-.03,2.15-.05,3.17-1.29,3.17-3.47,0-2.34-1.63-2.07-3.11-2.07-5.76-.01-11.51,0-17.86,0M334.39,470.56c4.87,0,9.74.01,14.6-.01,2.4-.01,3.35-1.5,3.36-3.67,0-2.37-1.87-1.89-3.27-1.9-7.75-.03-15.5-.03-23.25,0-1.65,0-3.59-.38-3.49,2.34.09,2.44,1.48,3.26,3.7,3.24,2.58-.03,5.17,0,8.35,0Z"/>
  <path class="st0" d="M220.75,326.43c-1.35-4.62-2.67-9-3.89-13.4-.69-2.48-2.17-3.95-4.76-3.34-3.34.77-3.57-1.29-3.92-3.91,5.3-1.78,10.55-3.57,15.82-5.3,1.19-.39,2.06.56,2.96,1.12,9.92,6.1,19.82,12.23,29.74,18.34.82.51,1.56,1.25,2.98,1.32-2.28-7.45-4.44-14.74-7.14-21.86-.82-2.16-2.62-2.75-4.63-2.19-2.12.59-2.6-.57-3.03-2.16-.46-1.73.49-2.26,1.92-2.66,4.21-1.18,8.4-2.43,12.59-3.7,1.28-.39,2.27-.58,2.8,1.07.42,1.31.91,2.49-.78,3.25-2.7,1.2-2.75,3.27-1.99,5.74,3.68,11.97,7.32,23.95,10.93,35.94.34,1.13,1.56,2.58.05,3.49-1.56.94-3.4,1.93-5.33.83-2.42-1.38-4.77-2.88-7.13-4.36-10.74-6.68-21.47-13.36-32.2-20.04-.34-.21-.71-.35-1.41-.68.09.96.05,1.78.26,2.52,2.18,7.54,4.34,15.08,6.65,22.58,1.29,4.18,2.21,4.7,6.61,4.26,1.52-.15,1.79.75,2.23,1.82.55,1.33.14,2.11-1.11,2.55-5.14,1.81-10.29,3.6-15.5,5.42-1.34-2.15-1.93-3.78.69-5.28,2.1-1.21,1.77-3.34,1.19-5.35-1.51-5.25-3.01-10.51-4.59-15.99Z"/>
  <path class="st0" d="M477.77,363.55c2.89,3.17,5.67,6.13,7.78,9.69,8.91,15.05,1.7,28.96-12.41,34.3-9.01,3.4-17.5,2.16-24.88-4.08-7.77-6.57-13.07-15.43-20.66-22.3,1.97-2.21,3.28-4.56,6.14-1.63,1.65,1.69,3.31.38,4.71-.84,5.09-4.46,10.16-8.94,15.23-13.42,2.53-2.24,5.02-4.53,7.56-6.77,1.68-1.48,2.46-3.2,1.2-5.26-.97-1.58-.05-2.29,1.02-3.17,1.27-1.05,2.16-.54,3.04.47,3.71,4.29,7.42,8.58,11.27,13.02M478.92,384.52c2.14-7.17.24-13.42-5.32-17.91-1.15-.93-2.08-1.37-3.36-.25-8.44,7.42-16.91,14.81-25.36,22.22-.78.68-1.23,1.39-.72,2.59,2.54,5.98,9.4,10.37,15.83,9.46,9.38-1.33,15.08-7.36,18.93-16.12Z"/>
  <path class="st0" d="M425.58,349.51c-1.1-.12-1.58.32-1.58,1.16.03,5.67-.39,11.34.23,16.99.22,2.01,1,3.85,2.32,5.4.8.95,1.21,1.81.07,2.8-1.03.88-1.95,1.63-3.39.6-2.74-1.98-5.56-3.85-8.38-5.73-1.25-.83-1.53-2-1.46-3.36.32-5.85.62-11.71.98-17.56.07-1.09.34-2.18-.13-3.23-.5-1.11-1.12-2.28-2.36-2.53-1.4-.28-1.68,1.17-2.24,2.02-1.54,2.32-2.99,4.71-4.47,7.07-2.29,3.64-2.22,4.04,1.08,6.95.29.26.52.58.75.83-1.51,3.6-1.78,3.72-4.87,1.81-4.82-2.99-9.6-6.04-14.41-9.04-1.32-.82-2.18-1.6-1.15-3.33.98-1.65,2-1.58,3.41-.68,2.49,1.59,3.87-.05,5.07-1.91,4.41-6.87,8.79-13.76,13.18-20.63,1.34-2.1,2.67-4.2,4.05-6.27,1.16-1.74,1.23-3.37-.51-4.73-1.48-1.15-1.65-2.28-.47-3.77,1.35-1.71,2.43-.52,3.56.21,5.42,3.53,10.92,6.93,16.51,10.2,3.36,1.97,6.39,4.37,8.26,7.99,4.66,9.03-.96,18.6-11.12,18.86-.89.02-1.79-.05-2.91-.11M414.52,339.37c.93,1.27,2.36,1.8,3.69,2.43,4.57,2.17,9.33.13,11.99-5.09,2.24-4.4.86-8.6-3.55-11.14-1.6-.93-2.75-.76-3.8.76-2.85,4.18-5.95,8.2-8.34,13.04Z"/>
  <path class="st0" d="M484.02,646.55c1.29,1.26,2.48,2.33,3.53,3.52.72.81,2.35,1.41,1.47,2.86-.8,1.33-1.82,2.72-3.67,2.7-2.79-.03-5.57-.08-8.35-.21-11.51-.52-23-1.55-34.54-1.62-.69,0-1.41-.08-1.97.63-.44,1.14.49,1.77,1.15,2.44,5,5.13,10.02,10.24,15.04,15.35,2.02,2.05,4.15,3.07,6.81,1,1.25-.97,2.38-.59,3.37.58,1.16,1.36.21,2.13-.71,2.96-3.48,3.13-6.96,6.25-10.42,9.4-.87.79-1.67,1.44-2.79.33-1.01-1-1.75-2.01-.53-3.3,2.19-2.31,1.23-4.25-.61-6.18-6.66-6.99-13.3-14-19.92-21.02-1.95-2.07-3.93-3.44-6.61-1.12-1.07.93-1.96.46-2.79-.51-.84-.99-1.03-1.91-.04-2.88,2.91-2.86,5.6-6.01,8.8-8.49,2.68-2.09,6.14-.8,9.26-.65,9.52.46,19.04,1,28.56,1.5.58.03,1.21.09,1.7-.42.42-.68-.12-1.11-.52-1.5-4.75-4.53-9.46-9.11-14.56-13.26-1.71-1.39-3.35-2.18-5.19-.23-1.29,1.36-2.22.52-3.2-.51-1.07-1.11-.94-1.99.12-3.02,3.22-3.11,6.38-6.28,9.57-9.43.94-.93,1.86-1.06,2.81,0,.78.88,1.99,1.78.61,2.97-2.84,2.44-.91,4.21.8,5.89,4.82,4.74,9.74,9.39,14.6,14.11,2.71,2.63,5.38,5.31,8.22,8.12Z"/>
  <path class="st0" d="M340.93,332.96c-8.75-14.44-3.4-36.62,17.73-40.21,15.36-2.61,30.98,6.66,32.33,24.54,1.08,14.34-11.33,27.48-25.72,27.6-10.05.08-18.1-3.81-24.34-11.93M353.23,335.98c7.49,5.79,15.97,4.25,20.79-3.89,3.51-5.92,5.53-12.27,5.34-19.28-.2-7.13-3.77-12.51-9.9-14.44-5.38-1.69-11.38.82-15.42,6.43-3.05,4.23-4.64,9.06-5.3,14.11-.78,6.04-.44,11.98,4.49,17.06Z"/>
  <path class="st0" d="M156.3,616.24c5.29,6.23,11.05,11.76,15.82,18.15,1.63,2.18,2.86,4.61,3.15,7.31,1,9.25-6.57,15.39-15.48,12.66-.93-.29-1.81-.86-3.28-.47-1.5,5.82-3.6,11.69-3.89,18-.06,1.25.46,2.34,1.05,3.38.73,1.3.83,2.28-.57,3.3-1.49,1.08-2.38.63-3.54-.51q-8.2-8.06-4.77-19.18c.91-2.94,1.77-5.9,2.78-8.81.8-2.3.08-4.03-1.87-5.94-3.3,3.08-6.6,6.05-9.76,9.16-1.29,1.27-.77,2.84.2,4.09,1.13,1.46,1.56,2.64-.18,4-1.98,1.54-2.7-.32-3.57-1.27-3.77-4.1-7.41-8.32-11.14-12.47-1.02-1.14-1.71-2.15-.41-3.59,1.26-1.41,2.31-1.14,3.49.04,1.65,1.66,3.24,1.45,4.93-.09,7.34-6.71,14.76-13.35,22.08-20.09,1.49-1.37,2.76-3.05,1.07-5.19-1.15-1.46-.21-2.29.82-3.21,1.29-1.16,2.13-.49,3.08.73M157.14,646.77c4.6-.21,7.48-2.86,9.31-6.78,1.34-2.87-1.22-8.1-4.21-9.1-.75-.25-1.37-.16-1.93.33-3.52,3.14-7.02,6.3-10.62,9.53,2.18,2.61,4.05,4.9,7.44,6.02Z"/>
  <path class="st0" d="M209.31,360.21c-6.11,11.08-15.26,16.37-27.74,15.73-9.53-.49-19.6-9.51-22.16-19.87-4.07-16.5,8.84-32.62,25.94-33.28,12.95-.5,23.99,8.34,26.11,19.8,1.11,6.01.61,11.84-2.16,17.62M179.68,364.29c1.08.7,2.12,1.49,3.25,2.1,5.37,2.88,10.81,3.21,15.62-.87,4.54-3.86,5.89-9.06,4.34-14.84-.75-2.8-2.22-5.34-3.77-7.76-3.55-5.54-7.77-10.43-14.35-12.43-4.55-1.38-8.91-.8-12.52,2.57-3.75,3.51-5.28,7.91-4.34,12.95,1.39,7.5,5.82,13.16,11.78,18.28Z"/>
  <path class="st0" d="M412.9,712.98c-10.89,2.17-19.84-.68-26.33-9.52-6.16-8.39-7.3-17.66-2.31-26.92,5.14-9.56,13.92-14.17,24.49-14.49,9.2-.27,16.75,3.69,21.79,11.72,8.21,13.1,2.27,30.71-12.64,37.4-1.54.69-3.16,1.17-5,1.8M424.26,696.29c1.96-8.39-5.89-22.6-14.55-26.63-8.91-4.14-18.82,1.88-18.41,13.09.32,8.78,4.8,16.14,12.03,21.36,8.41,6.07,17.82,2.64,20.93-7.82Z"/>
  <path class="st0" d="M195.59,687.43c1.37-2.52.62-3.96-1.6-5.28-6.06-3.61-6.01-3.7-9.76,2.15-1.34,2.09-2.62,4.23-4.01,6.29-.83,1.23-.73,2.1.47,3.03,3.07,2.39,6.26,4.58,9.73,6.36,2.81,1.44,5.22.13,7.59-1.15,1.3-.7,2.49-1.45,3.66.06,1.09,1.4-.28,2.19-.95,3.04-1.47,1.88-3.1,3.63-4.6,5.49-1.05,1.3-2.04,1.54-3.55.57-9.31-5.94-18.66-11.8-28.02-17.67-1.13-.71-1.9-1.37-1.12-2.86.73-1.39,1.59-1.92,3.09-1.17,1.93.96,3.23,0,4.24-1.57,5.58-8.71,11.15-17.43,16.74-26.13,1.19-1.85,1.27-3.49-.57-4.97-1.33-1.07-1.37-2.2-.31-3.59,1.24-1.62,2.32-.86,3.55-.07,8.81,5.61,17.62,11.21,26.47,16.77,1.79,1.13,2.62,2.21,1.16,4.25-1.15,1.61-2,3.43-3,5.15-.64,1.1-1.34,1.96-2.86,1.32-1.24-.53-1.53-1.29-1.28-2.58.66-3.34-.89-5.69-3.48-7.65-7.85-5.9-7.84-5.94-13.19,2.2-1.08,1.64-2.41,3.16-3.02,5.38,2.41,1.54,4.93,2.88,7.58,3.98,1.44.6,2.52-.15,3.53-.98,1.09-.9,2.01-1.54,3.32-.24,1.34,1.32.49,2.28-.23,3.37-1.79,2.75-3.54,5.53-5.33,8.29-.59.92-1.14,1.96-2.57,1.32-1.26-.56-2.37-1.19-1.69-3.1Z"/>
  <path class="st0" d="M291.51,316.04c1.73,7.09,5.34,12.22,12.43,14.25,7.14,2.04,13.63-.83,16.91-7.52.64-1.31,1.21-2.09,2.89-1.72,1.74.37,1.52,1.54,1.55,2.71.24,7.75-.35,8.94-7.82,10.88-10.07,2.62-19.96,2.16-28.95-3.73-6.37-4.17-9.36-10.38-9.6-17.9-.08-2.67-.26-5.35.28-8.03,2.53-12.44,11.93-18.29,23.34-20.26,7.15-1.24,14.01.07,20.72,2.58,1.49.56,2.23,1.32,2.11,3.06-.18,2.58-.02,5.17-.08,7.76-.02,1.04.22,2.41-1.44,2.42-1.25,0-2.77.16-3.13-1.56-.67-3.15-2.02-5.79-4.97-7.41-2.99-1.64-6.18-2.12-9.52-1.79-6.78.67-12.81,6.14-14.35,12.96-.97,4.33-.7,8.69-.38,13.3Z"/>
  <path class="st0" d="M166.8,381.56c6.21,5.55,6.59,6.81,3.27,14.53-4.97,11.52-13.51,18.7-26.23,19.64-8.45.63-17.55-4.17-22.59-13.54-6.76-12.57-1.91-28.91,10.93-37.28,7.15-4.66,7.35-4.65,13.99.82.68.57,1.33,1.18,2.1,1.86-.82,1.69-1.37,3.26-3.88,2.5-9.98-3.01-20.43,6.91-17.69,17.05,2.62,9.68,9.11,15.84,19.07,18.6,4.07.61,7.77.37,11.26-1.5,7.26-3.87,9.97-12.42,6-19.63-.96-1.75-.51-2.75.76-3.83,1.38-1.18,2.17.03,3.01.78Z"/>
  <path class="st0" d="M329.32,704.97c2.32.96,4.52,1.67,6.51,2.76,5.82,3.18,8.04,8.29,7.41,14.73-.56,5.63-3.89,9.2-8.86,11.4-6.69,2.96-13.5,2.67-20.37.65-1.97-.58-3.02-1.76-3.23-3.76-.23-2.27-.47-4.54-.7-6.8-.18-1.79,1.23-1.72,2.35-2.02,1.45-.38,2.28-.17,2.84,1.56,1.79,5.51,7.3,8.24,12.53,6.55,2.75-.89,4.38-2.72,4.84-5.5.47-2.8-.65-5.05-2.88-6.77-2.25-1.74-4.99-2.45-7.56-3.49-2.59-1.05-5.14-2.1-7.4-3.8-4.63-3.49-6.11-8.23-5.33-13.72.68-4.78,3.75-7.77,8.14-9.46,6.27-2.41,12.67-1.94,19.08-.75,1.21.23,1.7,1.05,1.95,2.28.62,2.96.39,5.91.39,8.76-3.07,1.4-4.65.79-5.54-2.52-.99-3.68-5.16-5.18-9.7-4.05-3.03.76-4.73,3.14-4.45,6.16.24,2.6,1.99,4.07,4.04,5.18,1.83.99,3.81,1.69,5.95,2.6Z"/>
  <path class="st0" d="M241.53,720.65c-1.18,1.5-2.28,2.79-3.27,4.16-.81,1.12-1.7,1.37-3.08,1.07-4.26-.93-4.39-1.22-4.72-5.74-.96-13.26-1.97-26.52-3.44-39.73-.26-2.32-1.34-3.62-3.35-4.43-1.03-.41-1.76-1.04-1.15-2.27.53-1.06.97-2.32,2.59-1.84,6.26,1.87,12.61,3.47,18.79,5.79-.38,2.19-.63,4.01-3.4,3.73-1.61-.17-2.48,1.06-2.31,2.48,1.07,9.07.99,18.23,2.38,27.27.03.18.19.33.45.77,3.24-3.29,5.92-6.94,8.67-10.52,2.73-3.55,5.42-7.13,8.08-10.73,1.37-1.85,1.75-3.68-.78-4.91-1.58-.77-1.13-1.87-.68-3,.54-1.38,1.49-1.19,2.69-.84,3.82,1.11,7.67,2.1,11.51,3.11.97.25,2.2.33,1.92,1.71-.27,1.32-.64,3.05-2.44,2.89-2.71-.24-4.22,1.3-5.71,3.12-7.55,9.26-15.11,18.51-22.79,27.93Z"/>
  <path class="st0" d="M280.69,709.75c.35-4.54.59-8.8,1.07-13.04.42-3.7.01-4.71-3.57-5.96-1.7-.59-1.72-1.65-1.45-3.03.29-1.52,1.18-1.71,2.62-1.57,5.63.55,11.27.92,16.9,1.4,1.29.11,2.7.19,2.67,2.07-.03,1.44-.43,2.38-2.15,2.62-2.47.34-3.63,1.83-3.82,4.5-.68,9.7-1.56,19.39-2.41,29.08-.2,2.26.41,4.02,2.68,4.71,2.44.74,2.67,2.26,1.85,4.47-4.32.67-8.63-.44-12.96-.66-2.07-.1-4.15-.32-6.24-.4-1.34-.05-2.3-.43-2.33-2.05-.02-1.48.25-2.47,2.05-2.57,2.31-.14,3.64-1.55,3.84-3.83.47-5.14.84-10.29,1.25-15.72Z"/>
  <path class="st0" d="M347.35,686.2c-.58-1.65.22-2.22,1.42-2.56,5.55-1.57,11.09-3.14,16.64-4.72,1-.28,1.93-.56,2.45.79.46,1.19.87,2.43-.55,3.11-3.2,1.55-2.93,3.85-2.09,6.76,2.57,8.87,4.94,17.79,7.3,26.72.79,2.98,1.96,5.28,5.65,4.64,1.45-.25,1.55.92,1.87,1.81.43,1.19-.08,1.89-1.24,2.24-5.81,1.74-11.61,3.51-17.42,5.24-1.19.36-2.15.21-2.46-1.29-.23-1.15-.98-2.44.69-3.02,3.43-1.19,3.47-3.73,2.69-6.55-2.46-8.91-4.95-17.81-7.5-26.69-.8-2.77-1.83-5.43-5.68-4.61-1.2.26-1.44-.77-1.78-1.87Z"/>
</svg>