<svg version="1.1" id="Layer_1" xmlns="http://www.w3.org/2000/svg" xmlns:xlink="http://www.w3.org/1999/xlink" x="0px" y="0px"
	 width="100%" viewBox="0 0 1024 1024" enable-background="new 0 0 1024 1024" xml:space="preserve">
<path fill="#000000" opacity="1.000000" stroke="none" 
	d="
M432.757812,80.567337 
	C444.189880,78.903946 455.164551,77.033424 466.207733,75.754082 
	C485.253510,73.547638 504.404877,73.206200 523.551208,73.700012 
	C590.788696,75.434166 654.431885,91.334190 714.305420,122.177078 
	C759.671631,145.546707 799.628296,175.995316 833.948242,213.698547 
	C868.454102,251.605942 895.674438,294.242859 915.465271,341.594360 
	C928.934265,373.820251 937.943909,407.248810 943.470581,441.701019 
	C947.431458,466.392242 949.513794,491.262390 949.148010,516.196167 
	C947.844788,605.026855 923.417847,686.797974 872.169006,759.817078 
	C822.938477,829.960266 759.024414,882.361450 679.974060,915.870422 
	C645.792236,930.359802 610.135193,939.512756 573.335693,944.506226 
	C547.847717,947.964966 522.262024,949.265686 496.637909,948.129456 
	C405.903900,944.106201 323.504181,916.066284 250.533142,861.470093 
	C186.125443,813.280823 139.180267,751.548950 108.638313,677.314514 
	C94.733101,643.516846 85.484047,608.435425 80.395401,572.151428 
	C76.421234,543.814087 75.579399,515.381104 76.966087,486.988556 
	C79.068008,443.951324 87.809959,402.080170 102.567070,361.480133 
	C119.683205,314.389893 143.535431,271.086456 175.443192,232.482117 
	C236.960098,158.054443 314.834656,109.279457 408.464630,85.708496 
	C416.347107,83.724121 424.372375,82.306946 432.757812,80.567337 
M603.089539,921.480713 
	C603.725464,921.287476 604.350952,921.044800 604.998840,920.907898 
	C649.464172,911.509094 690.661255,893.957275 729.256653,870.283264 
	C769.474426,845.614258 804.689331,815.081177 834.894043,778.729431 
	C859.753662,748.810486 880.431335,716.349792 896.391174,680.876404 
	C919.515625,629.478760 930.317627,575.385071 931.612793,519.248291 
	C932.043030,500.598419 930.707092,482.023102 928.808350,463.458038 
	C926.314941,439.079132 921.556030,415.158600 914.644470,391.712708 
	C901.489624,347.087524 881.269531,305.812714 854.388733,267.831055 
	C819.317261,218.276230 775.688782,177.967865 723.166138,147.500702 
	C662.691711,112.420937 597.261475,94.152153 527.509277,91.517693 
	C502.884003,90.587624 478.293060,91.764778 453.807922,95.172981 
	C414.623016,100.627319 377.044739,111.620430 341.095001,127.902794 
	C273.340027,158.590332 217.188660,203.737320 173.771332,264.326721 
	C126.054161,330.916595 99.078285,405.097961 94.584435,486.928680 
	C92.668274,521.820984 94.456390,556.721130 101.235855,591.236206 
	C116.091743,666.869446 148.948624,733.579529 200.334259,790.949951 
	C238.585236,833.655884 283.716827,867.377869 335.759094,891.695557 
	C381.601837,913.116333 429.821564,925.544067 480.189484,929.514832 
	C499.773407,931.058838 519.401978,931.078064 539.074890,929.885071 
	C560.363403,928.594116 581.389099,925.847778 603.089539,921.480713 
z"/>
<path fill="#000000" opacity="1.000000" stroke="none" 
	d="
M325.637024,523.706543 
	C326.020691,502.920685 326.359802,482.607697 326.817078,462.297363 
	C326.890137,459.051910 326.267639,456.811249 323.091766,454.976837 
	C316.941742,451.424622 314.575562,445.338959 314.317474,438.525604 
	C314.163849,434.469727 312.562531,433.124664 308.515198,433.199493 
	C301.608826,433.327118 300.688965,432.187225 300.673950,425.464233 
	C300.655701,417.299500 300.482208,409.128632 300.747040,400.972473 
	C300.885254,396.716217 299.684296,394.748230 295.138855,395.204742 
	C292.004883,395.519531 288.813202,395.273621 285.647461,395.251801 
	C284.307770,395.242554 282.973145,395.154022 281.905640,394.168549 
	C278.750000,391.255188 280.789368,378.708771 284.705109,377.029907 
	C306.585480,367.648621 328.475647,358.290222 350.349792,348.894409 
	C383.242676,334.765625 416.131012,320.626190 449.009766,306.464508 
	C469.498444,297.639496 489.989502,288.818970 510.410889,279.840424 
	C512.790100,278.794342 514.491760,279.468719 516.502747,280.339386 
	C546.449097,293.305054 576.406128,306.246307 606.367065,319.178162 
	C648.864746,337.521179 691.367920,355.851746 733.868408,374.188385 
	C734.021240,374.254364 734.167847,374.334869 734.320190,374.402100 
	C745.008972,379.117493 744.919312,379.113373 744.388062,390.686218 
	C744.243286,393.839874 743.085754,395.299347 739.927490,395.238617 
	C736.596191,395.174530 733.255005,395.359650 729.932495,395.175568 
	C726.473328,394.983856 725.227722,396.359955 725.293457,399.834991 
	C725.463623,408.829620 725.191406,417.833466 725.408875,426.826050 
	C725.525696,431.653473 723.389282,433.710724 718.834778,433.243927 
	C713.621582,432.709656 711.112610,433.952118 711.021729,440.079346 
	C710.928650,446.349884 708.086121,452.063019 702.020325,455.263275 
	C699.782043,456.444153 699.201782,458.127136 699.208496,460.545624 
	C699.277283,485.358185 700.099670,510.150421 701.023499,534.941406 
	C701.606384,550.581055 701.280273,566.236816 702.203064,581.879578 
	C702.977234,595.003479 702.999451,608.171997 703.328613,621.321411 
	C703.375305,623.184692 703.349365,625.001770 705.165833,626.198303 
	C712.442566,630.991882 714.074707,638.389099 713.843628,646.297424 
	C713.734375,650.035583 715.045471,650.761597 718.374756,650.811523 
	C730.025391,650.986328 730.116577,651.088745 729.984619,662.699768 
	C729.850281,674.522644 730.195007,686.342896 729.708069,698.174316 
	C729.493408,703.390320 727.520996,704.473694 722.748169,704.463867 
	C659.596497,704.333801 596.444458,704.379272 533.292542,704.379456 
	C456.977020,704.379700 380.661469,704.378967 304.345947,704.377380 
	C296.662903,704.377197 296.654663,704.372925 296.651886,696.560730 
	C296.647125,683.230530 296.766876,669.898804 296.590790,656.570923 
	C296.533813,652.257935 298.074646,650.671082 302.415985,650.688232 
	C312.159180,650.726746 312.068268,650.554626 312.710236,641.172424 
	C313.073181,635.868225 314.721008,630.879578 319.200867,627.656738 
	C322.033539,625.618958 322.646149,623.236816 322.716248,620.022583 
	C323.344391,591.225098 324.090240,562.430054 324.855774,533.635803 
	C324.939697,530.479309 325.364716,527.331848 325.637024,523.706543 
M622.091614,345.505554 
	C588.894409,331.260834 555.589233,317.258911 522.587891,302.574036 
	C515.682617,299.501343 510.259979,299.603699 503.485748,302.560760 
	C450.248688,325.799255 396.847046,348.660461 343.529663,371.715485 
	C340.756531,372.914612 337.644928,373.644897 334.933746,376.130707 
	C453.526642,376.130707 571.558533,376.130707 689.590454,376.130707 
	C689.695801,375.712006 689.801208,375.293304 689.906555,374.874573 
	C667.528564,365.197052 645.150635,355.519501 622.091614,345.505554 
M635.737305,603.534058 
	C635.753662,595.540405 636.865356,587.604492 636.727112,579.584900 
	C636.560669,569.928284 636.847107,560.259583 637.106079,550.600647 
	C637.900269,520.977844 638.747681,491.356415 639.659973,461.737122 
	C639.754211,458.677032 638.603210,456.886963 635.985535,455.353577 
	C631.847778,452.929810 629.144226,449.298859 627.583252,444.600800 
	C626.396790,441.029938 628.349121,436.081543 624.685486,433.978577 
	C621.299927,432.035126 616.848633,433.549927 612.875610,433.309784 
	C612.377563,433.279694 611.870178,433.356506 611.377136,433.298706 
	C606.798950,432.762146 605.151184,434.810059 605.274963,439.347168 
	C605.450134,445.766388 602.915100,451.343384 597.252502,454.460449 
	C592.726624,456.951721 592.218506,460.310364 592.372192,464.784912 
	C593.446472,496.060608 594.460571,527.339233 595.280579,558.622498 
	C595.821655,579.264587 596.045898,599.915527 596.304321,620.563843 
	C596.336792,623.154053 597.038635,624.945557 599.303589,626.348450 
	C605.688416,630.302734 608.285828,636.312317 608.332092,643.647461 
	C608.376953,650.758484 608.415894,650.758362 615.445923,650.766541 
	C616.112427,650.767334 616.787720,650.693970 617.444031,650.775269 
	C622.026428,651.342712 624.040710,649.795044 623.838928,644.742615 
	C623.617004,639.188171 624.501526,632.752869 629.236328,629.803467 
	C636.233521,625.444641 635.848999,619.493164 635.678833,613.021423 
	C635.604553,610.191345 635.702454,607.356689 635.737305,603.534058 
M394.860901,627.522095 
	C399.862335,631.216797 401.120178,636.701538 401.963226,642.382812 
	C403.236298,650.962036 403.236084,650.771606 412.061493,650.833679 
	C416.322571,650.863647 417.918823,649.584656 417.847473,645.117859 
	C417.725372,637.475525 419.896484,630.559448 426.953064,626.293030 
	C429.570374,624.710632 429.634155,622.418884 429.673706,619.840820 
	C430.036346,596.196289 430.304596,572.548889 430.898071,548.909729 
	C431.621002,520.111511 432.733917,491.322754 432.802429,462.510468 
	C432.808258,460.063080 433.298859,457.479218 430.559143,455.855957 
	C423.623749,451.746857 420.380951,445.572205 420.639709,437.544434 
	C420.735443,434.574219 419.272552,433.312500 416.381561,433.349884 
	C412.717072,433.397308 409.047089,433.453674 405.387207,433.309814 
	C401.565186,433.159515 400.135681,434.647736 400.253357,438.619598 
	C400.471313,445.974731 397.524170,451.944427 390.848145,455.534424 
	C388.085663,457.019989 387.259277,459.095154 387.319458,462.042511 
	C387.485992,470.199127 387.663025,478.354584 387.869873,486.509796 
	C388.896057,526.962708 389.572418,567.424500 390.399384,607.882629 
	C390.487762,612.207275 390.840057,616.527039 390.905579,620.851501 
	C390.946991,623.585632 391.810608,625.716797 394.860901,627.522095 
M355.499908,415.630219 
	C443.302460,415.629272 531.104980,415.628113 618.907532,415.627502 
	C646.564453,415.627289 674.221741,415.557953 701.877869,415.704315 
	C706.092896,415.726593 708.101318,414.668579 707.709290,410.114777 
	C707.395996,406.475983 707.564941,402.787689 707.655334,399.124695 
	C707.723755,396.351654 706.506653,395.150665 703.760132,395.283936 
	C702.098755,395.364532 700.429016,395.262299 698.763062,395.262268 
	C574.806824,395.260193 450.850616,395.259796 326.894409,395.262573 
	C325.228577,395.262604 323.562042,395.345123 321.897125,395.315643 
	C319.373901,395.270996 318.288116,396.475098 318.334137,398.981171 
	C318.404449,402.811798 318.546509,406.657501 318.296783,410.473175 
	C318.037689,414.432434 319.634735,415.742096 323.511902,415.675781 
	C333.838470,415.499115 344.170197,415.624176 355.499908,415.630219 
M523.633118,442.678436 
	C521.710205,433.296112 521.710205,433.296082 511.873383,433.315674 
	C511.207275,433.317017 510.535706,433.376007 509.875977,433.312103 
	C505.301422,432.868774 503.158264,434.580750 503.256805,439.518188 
	C503.380676,445.725922 500.700409,451.007660 495.417145,454.291840 
	C491.703339,456.600403 491.065979,459.444885 491.120087,463.450989 
	C491.508911,492.242767 492.347900,521.020691 493.189758,549.801392 
	C493.841766,572.091187 494.014648,594.394897 494.416840,616.692139 
	C494.446838,618.353882 494.533447,620.022095 494.728668,621.671326 
	C494.943451,623.485840 495.151154,625.365051 496.824036,626.562439 
	C503.460419,631.312500 505.335083,638.234863 505.260406,645.833801 
	C505.224579,649.480347 506.378601,651.141907 510.118378,650.770752 
	C511.602295,650.623535 513.120178,650.655151 514.610535,650.766724 
	C518.980530,651.093689 520.860291,649.434937 520.885315,644.751892 
	C520.923767,637.565247 522.664551,630.834534 529.332642,626.582397 
	C531.259094,625.353943 531.616516,623.535828 531.664246,621.412903 
	C532.303894,592.965393 532.962708,564.518127 533.676086,536.072388 
	C534.293396,511.452667 534.949890,486.833710 535.688660,462.217438 
	C535.787598,458.919647 535.032043,456.564117 531.931091,454.847107 
	C527.505371,452.396515 524.779785,448.470764 523.633118,442.678436 
M454.499939,686.679993 
	C536.813110,686.677917 619.126221,686.697083 701.439392,686.650024 
	C713.250488,686.643311 711.615417,688.260986 711.724976,676.277100 
	C711.798096,668.273987 711.738770,668.256958 703.524353,668.256775 
	C577.555542,668.253906 451.586700,668.257019 325.617859,668.253967 
	C314.300262,668.253723 314.300232,668.238647 314.311646,679.680237 
	C314.318573,686.666016 314.318604,686.675537 321.532440,686.676147 
	C365.521606,686.679810 409.510742,686.678772 454.499939,686.679993 
M655.333923,481.501923 
	C655.254089,490.160553 654.723328,498.808136 654.488098,507.454712 
	C653.478333,544.565308 652.881409,581.687012 652.009399,618.801758 
	C651.916504,622.753967 653.401123,624.198120 657.208374,624.138184 
	C664.868835,624.017578 672.532593,624.126587 680.194641,624.085144 
	C687.052368,624.048096 687.819580,623.125549 687.576904,616.210144 
	C686.608276,588.603394 685.325317,561.001099 684.859314,533.385315 
	C684.494019,511.744019 683.095459,490.121460 683.599487,468.464050 
	C683.638000,466.809113 683.363281,465.148224 683.261780,463.488434 
	C683.033508,459.752655 680.956055,458.288910 677.339172,458.356842 
	C672.177368,458.453735 666.999451,458.598358 661.852295,458.305023 
	C657.183533,458.038940 655.505432,460.390839 655.428711,464.513123 
	C655.329590,469.841705 655.361877,475.172729 655.333923,481.501923 
M371.791077,515.448303 
	C371.454559,498.309479 371.041168,481.171570 370.838074,464.031158 
	C370.790039,459.977386 369.199005,458.274750 365.189606,458.357422 
	C359.531128,458.474182 353.863983,458.511292 348.208832,458.327637 
	C344.484344,458.206696 343.342194,459.781097 343.293060,463.375916 
	C343.077087,479.181610 342.671204,494.985168 342.262299,510.787628 
	C341.831818,527.423157 341.296936,544.055969 340.848999,560.691101 
	C340.324921,580.151184 339.891937,599.613953 339.306030,619.072144 
	C339.193237,622.818481 340.865509,624.129272 344.359772,624.098755 
	C352.684082,624.026062 361.010498,623.978210 369.333710,624.093506 
	C373.169922,624.146606 374.861481,622.542419 374.653351,618.720032 
	C374.309631,612.407349 373.864838,606.092102 373.793243,599.774170 
	C373.478394,571.983459 372.915771,544.199951 371.791077,515.448303 
M474.870758,480.428955 
	C474.799652,475.265778 474.547729,470.096924 474.710358,464.941132 
	C474.861023,460.163544 472.634521,458.285675 468.101471,458.375702 
	C463.938843,458.458435 459.767242,458.532715 455.610596,458.354523 
	C451.152466,458.163422 449.352173,460.036560 449.298981,464.537354 
	C449.064819,484.348450 448.631104,504.157227 448.256683,523.966614 
	C448.181152,527.962952 448.035767,531.957886 447.944946,535.954041 
	C447.313354,563.747559 446.711578,591.541809 446.029358,619.334106 
	C445.945343,622.757324 447.325256,624.159424 450.729980,624.102905 
	C457.390961,623.992249 464.055084,624.087036 470.717804,624.063538 
	C478.223419,624.037109 478.797974,623.659729 478.598938,616.163574 
	C478.117432,598.030273 477.313293,579.905640 476.820557,561.772583 
	C476.092682,534.985107 475.522095,508.193390 474.870758,480.428955 
M576.990967,624.004578 
	C580.480164,623.718323 580.604431,621.183838 580.649231,618.567017 
	C580.763306,611.905945 580.110229,605.273499 579.886047,598.634521 
	C578.937073,570.525940 578.352417,542.404724 577.684509,514.286926 
	C577.289307,497.651886 576.904114,481.015564 576.703430,464.377533 
	C576.654785,460.343109 574.935547,458.492950 571.093689,458.439575 
	C566.265747,458.372467 561.436157,458.440521 556.607605,458.403503 
	C553.762024,458.381683 552.293884,459.692413 552.151550,462.570099 
	C551.921631,467.220642 551.347046,471.870697 551.397034,476.515778 
	C551.664490,501.330811 550.305786,526.111328 549.946899,550.912903 
	C549.614746,573.865906 548.901978,596.813782 548.276733,619.761719 
	C548.179565,623.328064 549.753113,624.374878 553.110901,624.279968 
	C560.765198,624.063538 568.426941,624.112427 576.990967,624.004578 
M649.574707,650.766724 
	C664.018616,650.765564 678.462646,650.725647 692.906250,650.793396 
	C696.095886,650.808350 697.892334,649.992615 697.712585,646.296204 
	C697.548523,642.921570 697.043335,640.360168 692.868835,640.372314 
	C677.096924,640.418335 661.324829,640.419067 645.552795,640.398865 
	C641.403198,640.393555 640.298279,642.613403 640.201599,646.439331 
	C640.093872,650.700378 642.511169,650.950623 645.616638,650.783447 
	C646.610046,650.729980 647.608459,650.771179 649.574707,650.766724 
M382.004639,650.705322 
	C386.230286,650.839539 385.738739,647.830200 385.590820,645.184326 
	C385.392059,641.629639 383.153320,640.384338 379.869598,640.388123 
	C364.735870,640.405396 349.602081,640.424011 334.468445,640.388855 
	C330.395660,640.379395 328.426788,642.079956 328.281189,646.346680 
	C328.120453,651.057922 331.121735,650.768188 334.216187,650.764526 
	C349.848755,650.746277 365.481293,650.748596 382.004639,650.705322 
M562.500183,640.383667 
	C555.683899,640.417542 548.865356,640.357605 542.052185,640.521484 
	C538.164185,640.615051 537.201660,643.233154 537.207581,646.677551 
	C537.212036,649.284851 537.950806,650.756470 540.855469,650.747742 
	C556.816956,650.699707 572.778625,650.705322 588.740112,650.740601 
	C591.475159,650.746643 592.590820,649.517639 592.661560,646.818787 
	C592.776184,642.448181 591.062561,640.475037 586.445068,640.421997 
	C578.797607,640.334045 571.148499,640.388916 562.500183,640.383667 
M440.034058,640.401917 
	C435.761444,640.214600 434.215210,642.264160 434.240814,646.497742 
	C434.269592,651.268921 437.376160,650.760803 440.367462,650.760925 
	C455.170746,650.761597 469.974213,650.775146 484.777069,650.687866 
	C486.463287,650.677856 488.822205,651.206482 489.377228,648.782043 
	C489.888275,646.549927 490.192688,644.120117 488.362732,642.165771 
	C486.717896,640.409119 484.537476,640.384094 482.345734,640.385864 
	C468.540314,640.396973 454.734863,640.393494 440.034058,640.401917 
M374.418640,433.316406 
	C361.446442,433.321442 348.474091,433.295776 335.502167,433.359375 
	C333.126373,433.371002 330.199432,432.809570 330.334259,436.851166 
	C330.446777,440.223969 332.130646,442.072357 335.357178,442.587952 
	C336.332214,442.743774 337.348969,442.650208 338.346619,442.650726 
	C351.152527,442.657654 363.958405,442.663116 376.764313,442.661591 
	C377.927643,442.661469 379.113617,442.747009 380.249908,442.557678 
	C383.385956,442.035309 384.691162,440.066925 384.637024,436.927734 
	C384.579285,433.577301 382.396973,433.309204 379.876953,433.340820 
	C378.380524,433.359619 376.883484,433.327423 374.418640,433.316406 
M661.504272,433.315155 
	C656.674133,433.323669 651.842407,433.264374 647.014709,433.377197 
	C645.304810,433.417145 643.076843,432.899475 642.500305,435.409363 
	C642.021912,437.492310 642.697266,439.295746 644.217651,440.869446 
	C645.923096,442.634491 648.029053,442.659058 650.222656,442.656433 
	C661.715210,442.642639 673.207825,442.658630 684.700378,442.658813 
	C686.532227,442.658844 688.378540,442.772308 690.192749,442.585785 
	C693.514343,442.244354 695.246826,440.338470 695.192200,436.931671 
	C695.134216,433.310577 692.660828,433.278534 689.984802,433.293915 
	C680.824402,433.346558 671.663452,433.314240 661.504272,433.315155 
M452.506042,433.327820 
	C448.852814,433.328888 445.197754,433.257050 441.546875,433.350220 
	C437.379608,433.456573 435.768738,436.423767 437.907471,439.979156 
	C439.144989,442.036469 441.100128,442.677094 443.430725,442.661987 
	C450.238647,442.617798 457.047150,442.657318 463.855408,442.656128 
	C469.999359,442.655060 476.145508,442.740601 482.286377,442.599670 
	C485.889343,442.516998 487.590332,440.442993 487.598297,436.795898 
	C487.606842,432.874847 484.864075,433.340546 482.397156,433.336182 
	C472.765991,433.319183 463.134766,433.327454 452.506042,433.327820 
M559.502441,442.655823 
	C567.647034,442.653625 575.791870,442.680695 583.936218,442.636719 
	C587.945923,442.615051 589.547974,440.130371 589.551880,436.504059 
	C589.556213,432.539764 586.423218,433.343384 584.085999,433.333160 
	C571.121338,433.276398 558.156250,433.289886 545.191406,433.318512 
	C542.428162,433.324615 539.184692,432.686127 539.345825,437.237244 
	C539.490356,441.322388 541.816162,442.694366 545.539124,442.653351 
	C549.860229,442.605743 554.182251,442.650452 559.502441,442.655823 
z"/>
<path fill="#000000" opacity="1.000000" stroke="none" 
	d="
M369.365997,201.510040 
	C367.099213,193.782379 364.898499,186.454102 362.850861,179.083282 
	C361.696777,174.928909 359.219635,172.482437 354.879059,173.489655 
	C349.296082,174.785187 348.910370,171.323517 348.323364,166.942856 
	C357.193878,163.960526 365.975586,160.963303 374.793671,158.077316 
	C376.792603,157.423111 378.236206,159.013824 379.754303,159.948044 
	C396.352142,170.162216 412.925232,180.416626 429.522675,190.631424 
	C430.901947,191.480270 432.127228,192.729568 434.514008,192.843933 
	C430.700745,180.377472 427.085754,168.177383 422.569214,156.262878 
	C421.198669,152.647430 418.189697,151.658401 414.820984,152.596619 
	C411.272247,153.584991 410.464172,151.639252 409.751617,148.979294 
	C408.974121,146.076736 410.574615,145.198563 412.968292,144.527100 
	C420.013702,142.550690 427.030579,140.468781 434.029419,138.332443 
	C436.166534,137.680115 437.828461,137.362488 438.715302,140.120956 
	C439.422363,142.320145 440.239410,144.295502 437.411560,145.556976 
	C432.894318,147.572067 432.805939,151.035309 434.075195,155.165466 
	C440.229523,175.191208 446.322754,195.235886 452.360016,215.297226 
	C452.929596,217.190063 454.970093,219.612900 452.445709,221.128601 
	C449.834229,222.696640 446.748749,224.357925 443.521149,222.509018 
	C439.477264,220.192535 435.543304,217.682495 431.584137,215.220200 
	C413.621796,204.048904 395.668304,192.863312 377.705017,181.693497 
	C377.143646,181.344421 376.510071,181.111465 375.340790,180.551895 
	C375.495575,182.154846 375.419922,183.522491 375.779633,184.764008 
	C379.433807,197.376022 383.041016,210.003876 386.910614,222.550415 
	C389.065247,229.536530 390.601471,230.408463 397.970276,229.676666 
	C400.511505,229.424286 400.964569,230.936340 401.700500,232.723434 
	C402.618408,234.952454 401.937103,236.250412 399.835144,236.989792 
	C391.230286,240.016647 382.616150,243.017105 373.898773,246.064545 
	C371.654388,242.467834 370.674957,239.743088 375.055817,237.222427 
	C378.561279,235.205429 378.021790,231.640640 377.052490,228.269684 
	C374.524963,219.479492 372.013794,210.684616 369.365997,201.510040 
z"/>
<path fill="#000000" opacity="1.000000" stroke="none" 
	d="
M799.399841,263.609222 
	C804.233765,268.913330 808.892761,273.872498 812.411621,279.814758 
	C827.323303,304.996277 815.262390,328.273773 791.653748,337.199341 
	C776.585083,342.896210 762.377930,340.809967 750.032288,330.366547 
	C737.030396,319.368073 728.166687,304.542755 715.472107,293.054260 
	C718.773926,289.353790 720.956787,285.421387 725.747498,290.329773 
	C728.502808,293.152771 731.289978,290.970337 733.623779,288.922180 
	C742.133240,281.454315 750.628906,273.970734 759.108154,266.468567 
	C763.346741,262.718384 767.515198,258.888794 771.759705,255.145309 
	C774.576538,252.660965 775.872864,249.786484 773.762756,246.337097 
	C772.145325,243.693100 773.672729,242.512131 775.465454,241.034378 
	C777.594055,239.279770 779.082275,240.123566 780.548767,241.818970 
	C786.754761,248.993927 792.958008,256.171234 799.399841,263.609222 
M801.333740,298.707581 
	C804.909302,286.710327 801.742676,276.253326 792.428162,268.747864 
	C790.505920,267.198944 788.942017,266.449707 786.801270,268.332428 
	C772.679932,280.752075 758.507812,293.113800 744.371094,305.515961 
	C743.073242,306.654510 742.315735,307.834900 743.173828,309.853577 
	C747.425903,319.856842 758.903870,327.204285 769.662842,325.678589 
	C785.362854,323.452240 794.901428,313.361023 801.333740,298.707581 
z"/>
<path fill="#000000" opacity="1.000000" stroke="none" 
	d="
M712.083374,240.120743 
	C710.237854,239.924911 709.435974,240.659714 709.444275,242.057877 
	C709.500549,251.537735 708.797485,261.032745 709.822144,270.492615 
	C710.186279,273.854218 711.495361,276.929016 713.705933,279.530151 
	C715.051697,281.113708 715.738525,282.558594 713.816467,284.212769 
	C712.096069,285.693451 710.548157,286.944061 708.138733,285.209137 
	C703.546692,281.902557 698.834717,278.759644 694.120850,275.626434 
	C692.032715,274.238495 691.556396,272.286011 691.682678,269.999420 
	C692.223694,260.202942 692.723511,250.403961 693.327026,240.611359 
	C693.439697,238.782013 693.892517,236.960526 693.105896,235.205978 
	C692.275635,233.354080 691.237244,231.395844 689.159668,230.975128 
	C686.809692,230.499268 686.356079,232.939606 685.416077,234.361649 
	C682.845276,238.250427 680.419250,242.234985 677.938538,246.183243 
	C674.113098,252.271713 674.222839,252.941223 679.742737,257.807251 
	C680.227539,258.234619 680.617126,258.769867 681.000977,259.199127 
	C678.471558,265.221893 678.016541,265.426697 672.848694,262.219696 
	C664.786316,257.216553 656.787964,252.110245 648.736023,247.090195 
	C646.534851,245.717850 645.091003,244.411392 646.806946,241.514267 
	C648.445679,238.747543 650.150818,238.872559 652.504272,240.373337 
	C656.669006,243.029205 658.986389,240.294388 660.983521,237.185532 
	C668.363770,225.697083 675.684082,214.170197 683.034790,202.662781 
	C685.274170,199.156982 687.497375,195.639664 689.804993,192.178940 
	C691.750854,189.260727 691.866333,186.536438 688.957336,184.268860 
	C686.485840,182.342224 686.201111,180.452042 688.171265,177.962967 
	C690.438416,175.098541 692.243896,177.090912 694.125732,178.315903 
	C703.197693,184.221283 712.394653,189.913895 721.742126,195.381409 
	C727.363647,198.669556 732.437927,202.694397 735.561096,208.745773 
	C743.355591,223.848236 733.957092,239.874207 716.957520,240.301163 
	C715.462036,240.338715 713.962585,240.219223 712.083374,240.120743 
M693.583191,223.151230 
	C695.134277,225.271469 697.531433,226.155014 699.756348,227.213943 
	C707.397888,230.850769 715.367310,227.427780 719.821106,218.695602 
	C723.571777,211.341873 721.256958,204.313782 713.884277,200.049194 
	C711.207031,198.500565 709.276428,198.770432 707.531799,201.328186 
	C702.759949,208.324020 697.580383,215.047745 693.583191,223.151230 
z"/>
<path fill="#000000" opacity="1.000000" stroke="none" 
	d="
M809.866089,737.132935 
	C812.018066,739.249023 814.015259,741.031738 815.776001,743.023315 
	C816.980347,744.385681 819.701721,745.389282 818.242615,747.801331 
	C816.899536,750.021545 815.201111,752.353699 812.095398,752.323792 
	C807.435181,752.278748 802.772583,752.187866 798.117249,751.977539 
	C778.852783,751.107361 759.628418,749.382263 740.328308,749.273865 
	C739.177917,749.267395 737.964966,749.144958 737.027344,750.334839 
	C736.293152,752.242065 737.852234,753.294128 738.949768,754.420898 
	C747.314148,763.008484 755.722168,771.553528 764.117981,780.110474 
	C767.490540,783.547852 771.067749,785.243835 775.515747,781.786499 
	C777.614014,780.155701 779.497498,780.806396 781.158386,782.757385 
	C783.095398,785.032715 781.507446,786.326843 779.971436,787.709717 
	C774.155640,792.945801 768.333374,798.174866 762.543457,803.439453 
	C761.081543,804.768738 759.752319,805.854065 757.881836,803.993896 
	C756.192871,802.314148 754.957336,800.633545 757.002686,798.469055 
	C760.660461,794.598328 759.061401,791.354126 755.987610,788.125183 
	C744.850952,776.426453 733.736328,764.706604 722.655640,752.954834 
	C719.390564,749.492004 716.082947,747.196289 711.587646,751.088013 
	C709.792419,752.642212 708.302185,751.856506 706.923035,750.231201 
	C705.521362,748.579224 705.204773,747.038757 706.853088,745.415588 
	C711.717346,740.625793 716.216736,735.364807 721.570374,731.203491 
	C726.062866,727.711548 731.844482,729.867981 737.059631,730.117249 
	C752.993286,730.878845 768.919800,731.789490 784.850281,732.618896 
	C785.823608,732.669617 786.866943,732.763977 787.698853,731.911316 
	C788.407715,730.767090 787.505432,730.046692 786.827148,729.399170 
	C778.878784,721.811462 770.999634,714.148804 762.459717,707.206909 
	C759.603821,704.885437 756.854431,703.557129 753.775024,706.816162 
	C751.617798,709.099182 750.065918,707.682007 748.413452,705.962097 
	C746.621521,704.097168 746.833679,702.632751 748.619690,700.904541 
	C754.004639,695.693909 759.300110,690.390747 764.626892,685.120117 
	C766.198914,683.564636 767.740112,683.340942 769.321106,685.125671 
	C770.631287,686.604675 772.657532,688.101257 770.346558,690.090149 
	C765.600403,694.174744 768.826477,697.134705 771.683228,699.943848 
	C779.755615,707.881714 787.982056,715.662720 796.108337,723.546204 
	C800.649597,727.951843 805.112366,732.438416 809.866089,737.132935 
z"/>
<path fill="#000000" opacity="1.000000" stroke="none" 
	d="
M570.442383,212.431488 
	C555.806885,188.269669 564.760193,151.160187 600.106628,145.147766 
	C625.810852,140.775482 651.949219,156.286819 654.205933,186.212982 
	C656.015564,210.209625 635.244324,232.191391 611.167419,232.390442 
	C594.353455,232.529434 580.886475,226.023697 570.442383,212.431488 
M591.033386,217.482986 
	C603.566772,227.179153 617.750122,224.597275 625.821472,210.980957 
	C631.697144,201.068726 635.077881,190.450485 634.753845,178.724121 
	C634.424194,166.794189 628.449646,157.784073 618.194214,154.568146 
	C609.185852,151.743301 599.156250,155.944595 592.394287,165.323303 
	C587.295471,172.395294 584.623291,180.479935 583.525452,188.934280 
	C582.212708,199.043320 582.789673,208.983215 591.033386,217.482986 
z"/>
<path fill="#000000" opacity="1.000000" stroke="none" 
	d="
M261.519287,686.417419 
	C270.364594,696.838379 280.000488,706.096008 287.992523,716.784485 
	C290.723267,720.436523 292.773193,724.499939 293.261169,729.021912 
	C294.931610,744.502258 282.266113,754.775024 267.353729,750.196411 
	C265.793823,749.717407 264.332764,748.750854 261.871826,749.407654 
	C259.357697,759.147766 255.848984,768.975159 255.365631,779.525146 
	C255.269440,781.624573 256.136536,783.444580 257.115234,785.176208 
	C258.342773,787.348206 258.505005,788.985657 256.161102,790.693542 
	C253.672775,792.506897 252.185349,791.753967 250.237839,789.839417 
	C236.523102,776.356750 236.486191,776.389709 242.253403,757.755371 
	C243.777008,752.832458 245.208313,747.876160 246.906525,743.013611 
	C248.249161,739.169189 247.045334,736.275269 243.774139,733.071350 
	C238.256958,738.221619 232.734924,743.191589 227.448669,748.400879 
	C225.296616,750.521484 226.162292,753.157654 227.783066,755.241394 
	C229.681229,757.681885 230.394592,759.650696 227.480713,761.925964 
	C224.171585,764.510010 222.970627,761.394653 221.512985,759.806824 
	C215.208817,752.939148 209.109421,745.883972 202.876709,738.949890 
	C201.164169,737.044556 200.017853,735.358521 202.184921,732.943176 
	C204.297180,730.588806 206.052780,731.034180 208.020584,733.015320 
	C210.787552,735.800903 213.445511,735.449524 216.272171,732.864746 
	C228.557312,721.631104 240.963654,710.529846 253.211990,699.256592 
	C255.701004,696.965820 257.833496,694.150452 254.998352,690.577087 
	C253.065811,688.141296 254.653641,686.744690 256.371002,685.202515 
	C258.525696,683.267578 259.928802,684.379822 261.519287,686.417419 
M262.928192,737.504700 
	C270.618835,737.158875 275.449097,732.712402 278.510468,726.165527 
	C280.757050,721.361023 276.468994,712.608765 271.463684,710.931396 
	C270.202026,710.508667 269.165375,710.662476 268.238464,711.490601 
	C262.352417,716.749695 256.487061,722.031921 250.473343,727.433655 
	C254.117111,731.799316 257.243561,735.634521 262.928192,737.504700 
z"/>
<path fill="#000000" opacity="1.000000" stroke="none" 
	d="
M350.224335,258.029602 
	C340.007385,276.575043 324.698761,285.424347 303.803894,284.345306 
	C287.854980,283.521698 271.006165,268.432098 266.731049,251.106628 
	C259.919983,223.503937 281.527313,196.528656 310.142151,195.416718 
	C331.815247,194.574524 350.288300,209.365265 353.836700,228.550003 
	C355.696625,238.606049 354.863586,248.367935 350.224335,258.029602 
M300.643860,264.854370 
	C302.454437,266.033417 304.190491,267.351624 306.088318,268.367828 
	C315.074799,273.179718 324.174408,273.745850 332.215881,266.919128 
	C339.815002,260.467926 342.079071,251.764420 339.474243,242.080521 
	C338.212982,237.391571 335.760437,233.150940 333.159302,229.091507 
	C327.218353,219.819855 320.151489,211.633957 309.145630,208.295517 
	C301.528259,205.984894 294.236481,206.953201 288.195160,212.601868 
	C281.922516,218.466858 279.367279,225.831940 280.928009,234.274002 
	C283.249207,246.829239 290.673553,256.288757 300.643860,264.854370 
z"/>
<path fill="#000000" opacity="1.000000" stroke="none" 
	d="
M690.858765,848.281616 
	C672.638977,851.906189 657.665588,847.142578 646.811157,832.356445 
	C636.506958,818.319702 634.600708,802.814941 642.940552,787.314392 
	C651.549072,771.314453 666.239746,763.598755 683.910156,763.071533 
	C699.298645,762.612366 711.944214,769.246521 720.371338,782.687256 
	C734.114136,804.606323 724.169495,834.064331 699.223694,845.264648 
	C696.653687,846.418457 693.929138,847.228210 690.858765,848.281616 
M709.875427,820.349426 
	C713.150696,806.311096 700.021606,782.538086 685.531494,775.797546 
	C670.625061,768.863342 654.046570,778.937988 654.732361,797.694641 
	C655.269653,812.390442 662.760986,824.708435 674.858643,833.441040 
	C688.930542,843.598694 704.677490,837.864624 709.875427,820.349426 
z"/>
<path fill="#000000" opacity="1.000000" stroke="none" 
	d="
M327.263031,805.522156 
	C329.550507,801.300171 328.306732,798.902466 324.579071,796.679932 
	C314.437225,790.632812 314.517609,790.488464 308.248138,800.284058 
	C306.005188,803.788513 303.860474,807.358398 301.530823,810.803711 
	C300.142151,812.857361 300.316284,814.315369 302.314972,815.870789 
	C307.452545,819.869019 312.791840,823.531372 318.590973,826.508118 
	C323.291626,828.920959 327.327087,826.717651 331.287689,824.577515 
	C333.457367,823.405090 335.462158,822.151917 337.416229,824.675049 
	C339.232758,827.020508 336.943939,828.335510 335.826813,829.756653 
	C333.359528,832.895386 330.634003,835.829773 328.125793,838.937988 
	C326.369049,841.114868 324.714478,841.509094 322.189636,839.898132 
	C306.615967,829.961731 290.963226,820.148987 275.313232,810.332703 
	C273.430481,809.151855 272.142090,808.034302 273.446136,805.551819 
	C274.664124,803.233215 276.109314,802.335876 278.623108,803.586670 
	C281.856354,805.195374 284.023682,803.593140 285.711090,800.961609 
	C295.054413,786.390625 304.362518,771.796997 313.727264,757.239746 
	C315.723938,754.135986 315.851318,751.403687 312.777374,748.924011 
	C310.550293,747.127563 310.483795,745.240051 312.263275,742.920654 
	C314.344666,740.207764 316.142548,741.481140 318.209412,742.796814 
	C332.951416,752.180603 347.696136,761.560730 362.497070,770.851013 
	C365.496735,772.733887 366.884460,774.556946 364.434326,777.965515 
	C362.502014,780.653809 361.084869,783.710449 359.411591,786.587585 
	C358.345093,788.421326 357.162445,789.870483 354.627441,788.797241 
	C352.549683,787.917542 352.065552,786.644409 352.491608,784.478638 
	C353.589813,778.895935 351.009003,774.953186 346.668030,771.686096 
	C333.541107,761.806458 333.548035,761.744446 324.593567,775.372681 
	C322.790344,778.117065 320.560059,780.653625 319.538940,784.369385 
	C323.575775,786.950989 327.781708,789.185303 332.213776,791.025696 
	C334.617859,792.023987 336.437836,790.781555 338.114136,789.386780 
	C339.930267,787.875549 341.475800,786.810608 343.674652,788.980286 
	C345.920807,791.196716 344.486969,792.787109 343.288971,794.624878 
	C340.289154,799.226685 337.357635,803.872864 334.377594,808.487671 
	C333.382477,810.028625 332.475464,811.770630 330.083069,810.702393 
	C327.972534,809.759949 326.112427,808.717285 327.263031,805.522156 
z"/>
<path fill="#000000" opacity="1.000000" stroke="none" 
	d="
M487.747009,184.120941 
	C490.640350,195.983276 496.690033,204.569229 508.551544,207.958252 
	C520.504761,211.373474 531.364929,206.568039 536.852661,195.380371 
	C537.924377,193.195526 538.870361,191.887543 541.694214,192.494781 
	C544.599121,193.119446 544.230530,195.077545 544.291809,197.031036 
	C544.698975,210.004181 543.706482,211.982605 531.212158,215.233109 
	C514.367737,219.615387 497.817810,218.842041 482.767395,208.988708 
	C472.105438,202.008438 467.098053,191.616989 466.704926,179.032486 
	C466.565521,174.569092 466.272308,170.076614 467.181488,165.602951 
	C471.413177,144.780426 487.148346,135.002869 506.236877,131.698853 
	C518.199341,129.628281 529.685364,131.810928 540.909546,136.021606 
	C543.396912,136.954697 544.632812,138.236008 544.432678,141.143234 
	C544.135925,145.452896 544.391357,149.798004 544.301147,154.125717 
	C544.264954,155.861816 544.664917,158.160828 541.884277,158.173080 
	C539.792053,158.182312 537.249512,158.439087 536.639038,155.568970 
	C535.516174,150.290176 533.267212,145.884811 528.316772,143.174805 
	C523.314209,140.436249 517.982239,139.632294 512.392578,140.185516 
	C501.048218,141.308289 490.950806,150.459305 488.386719,161.863419 
	C486.759277,169.101639 487.221558,176.407013 487.747009,184.120941 
z"/>
<path fill="#000000" opacity="1.000000" stroke="none" 
	d="
M243.904114,334.204193 
	C250.707153,335.227600 256.898285,334.827332 262.745972,331.703339 
	C274.896118,325.212433 279.420715,310.913391 272.781281,298.844910 
	C271.173828,295.923004 271.927795,294.251617 274.053802,292.443756 
	C276.371185,290.473145 277.681915,292.491821 279.095428,293.753845 
	C289.485687,303.030151 290.113861,305.143066 284.553589,318.050964 
	C276.247620,337.332916 261.956818,349.352417 240.668564,350.924591 
	C226.534271,351.968414 211.305542,343.939209 202.881058,328.273560 
	C191.569260,307.238831 199.677139,279.895752 221.157913,265.893097 
	C233.124939,258.092194 233.469788,258.108612 244.572586,267.268463 
	C245.715363,268.211273 246.796646,269.228577 248.087967,270.372009 
	C246.708725,273.207275 245.792007,275.832214 241.588348,274.561462 
	C224.891907,269.514160 207.407562,286.112793 211.995941,303.079865 
	C216.377243,319.281189 227.244034,329.589233 243.904114,334.204193 
z"/>
<path fill="#000000" opacity="1.000000" stroke="none" 
	d="
M551.022461,834.881409 
	C554.907349,836.492310 558.587341,837.682190 561.922913,839.502991 
	C571.657593,844.816895 575.383057,853.368103 574.317505,864.153259 
	C573.387024,873.571594 567.812317,879.541138 559.485168,883.219727 
	C548.288513,888.165894 536.902283,887.695129 525.395874,884.301025 
	C522.093384,883.326843 520.337280,881.361877 519.994995,878.007751 
	C519.607788,874.212280 519.206726,870.418213 518.817871,866.622864 
	C518.510498,863.621521 520.880005,863.743347 522.743347,863.249268 
	C525.172607,862.605164 526.552612,862.965881 527.493286,865.856201 
	C530.493408,875.074036 539.715820,879.641113 548.450928,876.817566 
	C553.059998,875.327759 555.773499,872.264038 556.544128,867.622498 
	C557.322937,862.931580 555.455444,859.168518 551.727661,856.298218 
	C547.957214,853.395020 543.384949,852.205688 539.081482,850.462036 
	C534.755981,848.709534 530.477234,846.953186 526.695801,844.104553 
	C518.948486,838.268372 516.466736,830.329163 517.774475,821.148560 
	C518.914001,813.149109 524.049377,808.139465 531.400696,805.314453 
	C541.888000,801.284363 552.599670,802.063782 563.332397,804.063416 
	C565.355042,804.440186 566.169189,805.824585 566.597351,807.883057 
	C567.628662,812.840637 567.248535,817.767456 567.250427,822.548157 
	C562.109863,824.896301 559.466858,823.873291 557.981445,818.338684 
	C556.330322,812.186523 549.345581,809.666382 541.755066,811.563110 
	C536.688660,812.829041 533.841492,816.815186 534.314026,821.869507 
	C534.720459,826.218323 537.646240,828.682190 541.073364,830.531494 
	C544.135864,832.183899 547.454468,833.361511 551.022461,834.881409 
z"/>
<path fill="#000000" opacity="1.000000" stroke="none" 
	d="
M404.129578,861.108765 
	C402.157410,863.611572 400.319824,865.773743 398.665070,868.067749 
	C397.312103,869.943359 395.825043,870.357666 393.518524,869.853821 
	C386.397461,868.298462 386.177917,867.811279 385.627411,860.246521 
	C384.013031,838.061218 382.338806,815.879211 379.876678,793.762756 
	C379.444336,789.879333 377.641144,787.703430 374.268372,786.351868 
	C372.551880,785.664001 371.316406,784.611633 372.351990,782.548218 
	C373.238281,780.782349 373.976440,778.664917 376.688293,779.474548 
	C387.163361,782.602478 397.784546,785.279968 408.135040,789.154663 
	C407.497894,792.821472 407.081787,795.868042 402.444183,795.390137 
	C399.753082,795.112793 398.296906,797.156128 398.578461,799.544250 
	C400.367279,814.715881 400.229889,830.052368 402.566010,845.170532 
	C402.611816,845.467102 402.883820,845.728821 403.325165,846.465881 
	C408.753693,840.953918 413.225647,834.846008 417.835724,828.868286 
	C422.410461,822.936279 426.908691,816.943970 431.359406,810.918213 
	C433.643951,807.825134 434.279785,804.752869 430.062592,802.704346 
	C427.412262,801.416992 428.174042,799.583191 428.921234,797.681213 
	C429.825714,795.378845 431.413696,795.684875 433.419647,796.269043 
	C439.804382,798.128235 446.248718,799.785095 452.684235,801.465698 
	C454.309143,801.890015 456.371155,802.014221 455.899719,804.329590 
	C455.449310,806.541870 454.837006,809.426331 451.814880,809.156982 
	C447.275482,808.752441 444.757019,811.328796 442.268616,814.382629 
	C429.643402,829.876953 416.988037,845.346680 404.129578,861.108765 
z"/>
<path fill="#000000" opacity="1.000000" stroke="none" 
	d="
M469.655670,842.867920 
	C470.237823,835.278137 470.647888,828.139893 471.447113,821.045471 
	C472.144928,814.851379 471.466003,813.160156 465.466125,811.073364 
	C462.621185,810.083923 462.595673,808.304749 463.038574,805.995544 
	C463.527710,803.445496 465.012482,803.128113 467.416534,803.362366 
	C476.830841,804.279602 486.273163,804.905579 495.699219,805.708313 
	C497.849823,805.891357 500.223511,806.029480 500.167480,809.173828 
	C500.124542,811.584351 499.444122,813.152039 496.568054,813.553406 
	C492.440582,814.129272 490.492584,816.621277 490.179901,821.076782 
	C489.040741,837.308838 487.573608,853.518433 486.144745,869.729004 
	C485.811829,873.506226 486.826233,876.460876 490.629364,877.611023 
	C494.715363,878.846619 495.089447,881.397034 493.722504,885.083923 
	C486.489929,886.208801 479.277466,884.341980 472.029694,883.983521 
	C468.569458,883.812378 465.080627,883.449707 461.594330,883.314331 
	C459.354919,883.227295 457.738068,882.590332 457.698364,879.879272 
	C457.662018,877.398254 458.124115,875.753296 461.129364,875.572266 
	C464.989807,875.339722 467.217834,872.971619 467.562531,869.167053 
	C468.341919,860.565002 468.965607,851.948914 469.655670,842.867920 
z"/>
<path fill="#000000" opacity="1.000000" stroke="none" 
	d="
M581.191162,803.467651 
	C580.222168,800.709778 581.565125,799.759705 583.575317,799.191406 
	C592.856628,796.567383 602.134460,793.931030 611.410278,791.287720 
	C613.081909,790.811340 614.642700,790.353394 615.508179,792.602051 
	C616.275085,794.594360 616.962219,796.662537 614.581238,797.812866 
	C609.230225,800.398254 609.681458,804.262024 611.088623,809.118713 
	C615.386963,823.953979 619.347473,838.888672 623.307190,853.819641 
	C624.631531,858.813171 626.592957,862.660278 632.757385,861.587708 
	C635.191162,861.164246 635.355225,863.123108 635.893982,864.623840 
	C636.608887,866.614990 635.767273,867.783508 633.819641,868.368225 
	C624.101318,871.285889 614.393799,874.239746 604.671204,877.142822 
	C602.676819,877.738342 601.075867,877.496460 600.562805,874.980347 
	C600.170410,873.055847 598.926514,870.895752 601.717712,869.928162 
	C607.458496,867.937927 607.527161,863.681702 606.225525,858.970093 
	C602.108398,844.066406 597.946777,829.174500 593.676575,814.314087 
	C592.342957,809.673218 590.611633,805.220459 584.171753,806.596619 
	C582.160828,807.026367 581.756348,805.303894 581.191162,803.467651 
z"/>
</svg>